<?xml version="1.0" encoding="UTF-8" standalone="no"?>
<!-- Created with Inkscape (http://www.inkscape.org/) -->

<svg
   xmlns:dc="http://purl.org/dc/elements/1.1/"
   xmlns:cc="http://creativecommons.org/ns#"
   xmlns:rdf="http://www.w3.org/1999/02/22-rdf-syntax-ns#"
   xmlns:svg="http://www.w3.org/2000/svg"
   xmlns="http://www.w3.org/2000/svg"
   xmlns:xlink="http://www.w3.org/1999/xlink"
   xmlns:sodipodi="http://sodipodi.sourceforge.net/DTD/sodipodi-0.dtd"
   xmlns:inkscape="http://www.inkscape.org/namespaces/inkscape"
   width="210mm"
   height="297mm"
   viewBox="0 0 744.09448819 1052.3622047"
   id="svg2"
   version="1.1"
   inkscape:version="0.91 r13725"
   sodipodi:docname="cartel.Venta.svg">
  <defs
     id="defs4">
    <clipPath
       clipPathUnits="userSpaceOnUse"
       id="clipPath148">
      <path
         d="m 242.736,477.59 c -17.978,0 -32.551,-14.575 -32.551,-32.554 l 0,0 0,-48.185 c 0,-17.976 14.573,-32.553 32.551,-32.553 l 0,0 109.799,0 c 17.981,0 32.555,14.577 32.555,32.553 l 0,0 0,48.185 c 0,17.979 -14.574,32.554 -32.555,32.554 l 0,0 -109.799,0 z"
         id="path150"
         inkscape:connector-curvature="0" />
    </clipPath>
  </defs>
  <sodipodi:namedview
     id="base"
     pagecolor="#ffffff"
     bordercolor="#666666"
     borderopacity="1.0"
     inkscape:pageopacity="0.0"
     inkscape:pageshadow="2"
     inkscape:zoom="0.79722282"
     inkscape:cx="283.80524"
     inkscape:cy="500.71563"
     inkscape:document-units="px"
     inkscape:current-layer="layer1"
     showgrid="false"
     showguides="false"
     inkscape:window-width="1920"
     inkscape:window-height="1014"
     inkscape:window-x="0"
     inkscape:window-y="27"
     inkscape:window-maximized="1"
     inkscape:snap-bbox="true"
     inkscape:bbox-nodes="true" />
  <metadata
     id="metadata7">
    <rdf:RDF>
      <cc:Work
         rdf:about="">
        <dc:format>image/svg+xml</dc:format>
        <dc:type
           rdf:resource="http://purl.org/dc/dcmitype/StillImage" />
        <dc:title />
      </cc:Work>
    </rdf:RDF>
  </metadata>
  <g
     inkscape:label="Capa 1"
     inkscape:groupmode="layer"
     id="layer1">
    <rect
       style="color:#000000;clip-rule:nonzero;display:inline;overflow:visible;visibility:visible;opacity:1;isolation:auto;mix-blend-mode:normal;color-interpolation:sRGB;color-interpolation-filters:linearRGB;solid-color:#000000;solid-opacity:1;fill:#e6eaf6;fill-opacity:1;fill-rule:nonzero;stroke:none;stroke-width:1.04400003;stroke-linecap:butt;stroke-linejoin:miter;stroke-miterlimit:4;stroke-dasharray:none;stroke-dashoffset:0;stroke-opacity:1;marker:none;color-rendering:auto;image-rendering:auto;shape-rendering:auto;text-rendering:auto;enable-background:accumulate"
       id="rect4286"
       width="690.63104"
       height="142.4791"
       x="31.930653"
       y="799.01282" />
    <image
       sodipodi:absref="/home/creawww/DATOS/020_NOVATERRA/Novaterra/DeMandarina/imagenes/IMG_5340.JPG"
       xlink:href="imagenes/IMG_5340.JPG"
       width="690.06885"
       height="375.51251"
       preserveAspectRatio="none"
       id="image4480"
       x="32.492817"
       y="423.50027" />
    <rect
       style="color:#000000;clip-rule:nonzero;display:inline;overflow:visible;visibility:visible;opacity:1;isolation:auto;mix-blend-mode:normal;color-interpolation:sRGB;color-interpolation-filters:linearRGB;solid-color:#000000;solid-opacity:1;fill:#ffe8d9;fill-opacity:1;fill-rule:nonzero;stroke:#d45500;stroke-width:1.80487788;stroke-linecap:butt;stroke-linejoin:miter;stroke-miterlimit:4;stroke-dasharray:none;stroke-dashoffset:0;stroke-opacity:1;marker:none;color-rendering:auto;image-rendering:auto;shape-rendering:auto;text-rendering:auto;enable-background:accumulate"
       id="rect4597"
       width="335.76819"
       height="100.42905"
       x="369.24298"
       y="787.00031"
       ry="0" />
    <path
       inkscape:connector-curvature="0"
       id="path4160"
       d="m 95.758269,214.40677 c -8.66654,-1.13334 -15.814596,-3.30328 -24.184869,-7.34185 -6.692306,-3.22896 -9.233647,-5.08085 -15.430296,-11.24415 -8.25639,-8.21196 -12.36426,-14.80369 -15.488685,-24.8541 -1.696462,-5.45705 -1.987583,-8.20398 -1.987583,-18.75427 0,-14.76685 1.481517,-20.20584 8.267445,-30.35164 10.629187,-15.89196 29.500599,-24.809184 54.388869,-25.700134 6.32956,-0.22659 11.92987,-0.65447 12.44513,-0.95086 0.51525,-0.29638 4.77592,-5.1422 9.46814,-10.768475 16.22663,-19.45677 31.31505,-31.78774 34.37887,-28.09605 1.56107,1.88097 0.52205,3.32401 -4.43077,6.15366 -5.90125,3.37151 -14.70497,11.27541 -13.68979,12.29058 0.42418,0.42418 4.1653,0.65951 8.3136,0.52296 l 7.54238,-0.24828 0.71067,-2.75084 c 0.39086,-1.51296 1.53728,-3.19323 2.5476,-3.73395 3.07567,-1.64604 11.95659,-0.26866 30.42696,4.71906 9.56135,2.58194 21.45326,5.35518 26.42647,6.16278 4.9732,0.80759 9.35149,1.72384 9.72952,2.03611 2.06634,1.70692 -25.10783,11.315035 -36.06896,12.753095 -15.31812,2.00968 -25.08614,-1.893 -30.9563,-12.368165 l -1.90993,-3.40823 -9.67051,-0.24202 c -7.50716,-0.18788 -10.1106,0.0463 -11.63778,1.04698 -3.37959,2.2144 -14.35066,15.827035 -13.46752,16.710175 0.44362,0.44362 3.09049,1.21135 5.88192,1.70607 13.99792,2.480834 23.03643,7.221304 33.20695,17.416244 4.21983,4.22996 8.95919,9.88554 10.5319,12.56797 11.89287,20.28453 12.35956,40.70161 1.30482,57.08575 -5.17732,7.67327 -12.36039,13.3522 -24.62393,19.46768 -18.05292,9.00248 -35.25595,12.36671 -52.024321,10.1739 z m -33.81909,-81.9716 c 1.486719,-1.48672 1.255816,-2.3869 -0.612252,-2.3869 -2.540775,0 -4.332055,0.91893 -4.332055,2.22237 0,1.46046 3.530882,1.57796 4.944307,0.16453 z m 5.657363,-12.7262 c 1.568068,-1.23344 2.028447,-2.09311 1.437434,-2.68412 -1.107022,-1.10702 -5.21937,1.44554 -5.21937,3.2397 0,1.73484 1.069974,1.57765 3.781936,-0.55558 z m 14.035382,-0.2266 c 1.198338,-1.27558 1.580439,-2.24964 1.01868,-2.59683 -1.216154,-0.75162 -4.099575,0.88344 -5.206984,2.95266 -1.344133,2.51153 1.740769,2.24944 4.188304,-0.35583 z M 197.31854,171.5771 c -1.43001,-1.05528 -1.70969,-3.08989 -2.4765,-18.01553 -0.84307,-16.40995 0.0182,-41.27008 1.56258,-45.10339 1.97597,-4.90459 18.36356,-4.02467 29.42361,1.57989 17.60786,8.92257 19.04328,23.60267 4.1122,42.05574 -10.36928,12.81523 -27.66219,23.14335 -32.62189,19.48329 z m 6.38654,-3.28987 c 5.17398,-1.74002 13.98422,-8.19792 20.52734,-15.04651 11.56893,-12.10907 15.31733,-23.1633 10.58509,-31.21599 -4.5056,-7.66703 -16.63924,-13.25648 -28.82407,-13.27802 -5.04884,-0.009 -5.85341,0.21617 -6.81974,1.90794 -1.64504,2.88002 -1.57699,55.20706 0.0744,57.19716 1.39041,1.67558 0.90915,1.62856 4.45699,0.43542 z m 75.79682,-2.15974 c 0.0182,-6.85976 1.5013,-28.86011 2.60456,-38.63662 3.03606,-26.90422 7.15836,-28.170794 20.8089,-6.39351 1.76334,2.81314 3.3422,5.26537 3.50858,5.4494 0.60942,0.67407 3.13731,-2.08748 9.73901,-10.63922 8.50993,-11.02365 10.97775,-12.11758 12.72214,-5.63941 1.12806,4.18929 4.09513,33.4816 4.83146,47.69842 0.51774,9.99643 0.42932,11.29519 -0.76895,11.29519 -1.62186,0 -1.72705,-0.73815 -3.64486,-25.57401 -1.70341,-22.05959 -3.01235,-31.72357 -4.35654,-32.16462 -0.55107,-0.18082 -4.13149,3.72521 -7.9565,8.68006 -7.03515,9.11324 -9.16202,11.05082 -11.25061,10.24936 -0.63364,-0.24315 -3.17414,-3.65261 -5.64554,-7.57658 -2.47141,-3.92396 -5.81282,-8.61467 -7.42536,-10.4238 -2.69902,-3.02807 -3.0237,-3.17218 -4.08802,-1.81449 -1.87859,2.39641 -4.22384,22.84146 -5.50132,47.95843 -0.52871,10.39523 -0.79785,11.96135 -2.09832,12.21016 -1.28383,0.24563 -1.48998,-0.4067 -1.47863,-4.67876 z m 197.7591,3.24226 c 0,-4.25761 15.13661,-50.45504 18.58338,-56.71707 1.26614,-2.30029 3.10487,-4.7046 4.0861,-5.34291 1.55876,-1.01402 2.05848,-0.94467 3.95767,0.54924 4.34089,3.41454 12.72454,22.01368 21.01722,46.62672 4.56085,13.53686 5.12854,16.48094 3.17788,16.48094 -0.73717,0 -2.04159,-2.79223 -3.48458,-7.45908 -3.01044,-9.73629 -10.61785,-30.17079 -11.75192,-31.56724 -0.64972,-0.80003 -3.5279,-1.02769 -10.77702,-0.85247 l -9.89056,0.23909 -4.00001,12.36076 c -2.2,6.79843 -5.00439,15.71736 -6.23197,19.81986 -1.4629,4.88894 -2.65478,7.45908 -3.45907,7.45908 -0.67491,0 -1.22712,-0.71861 -1.22712,-1.59692 z m 32.88316,-42.83359 c 0.87953,-1.42311 -6.58939,-15.60289 -8.39784,-15.94334 -1.14713,-0.21596 -2.14931,1.11392 -4.12796,5.47772 -1.43716,3.16961 -2.81959,7.03584 -3.07206,8.59163 l -0.45903,2.8287 7.73342,0 c 4.78819,0 7.95815,-0.3636 8.32347,-0.95471 z m -262.77641,42.73527 c -1.35329,-0.55568 -2.00952,-1.7709 -2.41444,-4.47112 -0.83568,-5.57268 -0.12747,-35.3914 0.86296,-36.33443 0.46886,-0.44642 5.26398,-0.94432 10.65584,-1.10646 8.27681,-0.24888 9.80336,-0.0957 9.80336,0.98391 0,1.00601 -1.86487,1.43462 -8.74458,2.00983 -9.59343,0.80209 -10.10718,1.18597 -9.4369,7.05119 0.26981,2.36091 0.4602,2.45557 5.39448,2.68213 6.93542,0.31843 8.16278,0.80458 6.01745,2.38344 -0.98616,0.72577 -3.6555,1.21781 -6.60661,1.21781 l -4.95187,0 0,10.55146 c 0,7.64254 0.30693,10.80619 1.11333,11.47543 0.61233,0.50819 4.92795,1.03468 9.59025,1.16997 6.8574,0.19898 8.47692,0.49028 8.47692,1.52468 0,1.04444 -1.63986,1.31045 -8.9509,1.45197 -4.923,0.0953 -9.78718,-0.17011 -10.80929,-0.58981 z m 90.41591,-0.38658 c -1.12596,-2.93422 12.30016,-48.0234 17.14926,-57.59263 3.89983,-7.69595 6.4724,-6.11952 10.54972,6.46474 2.72403,8.40742 12.89222,48.19801 12.89222,50.45035 0,0.66421 -0.65169,1.05416 -1.49182,0.89267 -1.18607,-0.228 -2.45273,-4.12812 -6.18038,-19.02989 l -4.68857,-18.74312 -7.41852,-0.24572 -7.41851,-0.24571 -2.90589,9.19661 c -1.59824,5.05814 -3.97692,13.41633 -5.28597,18.57375 -2.50709,9.87755 -4.1271,13.07891 -5.20154,10.27895 z m 25.82569,-42.31386 c 0.65819,-0.65819 0.43716,-2.53764 -0.77695,-6.60662 -2.29339,-7.6861 -3.0455,-9.01716 -4.44081,-7.85916 -1.52566,1.2662 -5.86654,13.39726 -5.18726,14.49638 0.72528,1.17353 9.22589,1.14853 10.40502,-0.0306 z m 75.10752,41.62516 c -0.82764,-1.44898 -1.09557,-8.38076 -1.09557,-28.34452 0,-28.81671 0.44426,-32.2208 4.40139,-33.7253 5.50428,-2.09273 18.06447,-0.0509 26.79393,4.35573 10.67035,5.38637 16.07147,12.91587 14.89458,20.76395 -1.82054,12.14028 -16.31843,28.23725 -32.42638,36.00295 -7.09305,3.41958 -10.98806,3.71313 -12.56795,0.94719 z m 13.00651,-4.97245 c 17.273,-8.9864 30.60772,-26.18953 28.59921,-36.89585 -1.63782,-8.73033 -17.56099,-17.55369 -31.72796,-17.58114 -3.4747,-0.007 -5.55879,0.39384 -6.22488,1.19642 -2.44029,2.94038 -3.14536,48.75677 -0.84349,54.81116 1.02486,2.6956 2.49924,2.4743 10.19712,-1.53059 z m 119.30897,6.29815 c -5.28591,-2.02264 -20.19602,-15.75908 -32.66793,-30.09645 l -4.07854,-4.68857 0.49792,12.36077 c 0.27387,6.79842 0.72736,14.56653 1.00778,17.26245 0.46843,4.50346 0.37133,4.90169 -1.19524,4.90169 -1.53212,0 -1.76248,-0.75667 -2.27086,-7.45909 -1.07613,-14.18725 -1.95567,-44.13471 -1.44523,-49.20881 0.60456,-6.00977 2.15902,-7.25252 9.03706,-7.2248 11.14913,0.0449 22.88051,3.8197 25.17081,8.09916 2.67911,5.00596 -1.04019,8.17719 -16.90993,14.41809 -5.56887,2.19001 -9.21424,4.10354 -9.37276,4.91995 -0.35054,1.80536 11.13659,15.3559 19.89761,23.4718 3.91273,3.62461 9.29063,7.75331 11.95091,9.17489 2.66027,1.42159 4.88863,2.95603 4.95191,3.40987 0.1339,0.9603 -2.71381,1.37067 -4.57351,0.65905 z m -22.94724,-45.17677 c 10.82486,-4.17401 15.022,-6.84955 14.18139,-9.04016 -1.27788,-3.33008 -12.17368,-6.56832 -22.10061,-6.56832 -4.56062,0 -5.04925,0.18388 -5.81071,2.18666 -0.91691,2.41165 -1.13877,14.77459 -0.30418,16.94952 0.62577,1.63072 0.71348,1.60866 14.03411,-3.5277 z m 84.47331,42.14614 c -1.36998,-1.99264 -6.61135,-11.29518 -11.6475,-20.67232 -15.75805,-29.34089 -20.27922,-36.38523 -22.47972,-35.02524 -1.93056,1.19314 -6.1306,27.76317 -7.35577,46.53354 -0.67101,10.28035 -1.02913,11.93454 -2.58375,11.93454 -0.92192,0 -1.26246,-1.00253 -1.26246,-3.71667 0,-6.1899 2.47447,-29.33399 4.25089,-39.75914 2.0613,-12.0971 3.01876,-15.51086 5.05592,-18.02664 1.47419,-1.82056 1.76158,-1.87552 3.87965,-0.74196 3.31138,1.7722 9.91776,12.19229 22.16827,34.96547 10.29758,19.14276 12.67969,23.00448 13.61404,22.07013 0.23032,-0.23032 1.01739,-8.07149 1.74905,-17.42483 2.47557,-31.64715 4.55216,-42.63518 7.50034,-39.68701 0.69055,0.69056 0.67816,1.68815 -0.0462,3.71411 -1.23643,3.45834 -2.39631,13.38316 -4.05962,34.73747 -1.43068,18.36769 -1.92982,22.08085 -3.17988,23.65595 -1.48591,1.87226 -3.04801,1.1593 -5.60329,-2.5574 z M 382.08488,152.2193 c 0.87507,-26.18965 2.89832,-43.24348 5.37414,-45.29823 3.29645,-2.73581 7.57394,2.62077 22.89296,28.66823 12.89111,21.91921 15.51855,26.00024 16.73941,26.00024 0.75467,0 0.86992,-6.69725 0.47038,-27.33498 -0.49365,-25.49962 -0.43127,-27.31629 0.92907,-27.0566 1.26606,0.24169 1.52841,1.90632 1.99049,12.62993 0.29273,6.79335 0.58043,19.88087 0.63935,29.08339 0.089,13.90032 -0.10856,16.91082 -1.16731,17.78952 -3.00102,2.49062 -6.31982,-1.89545 -23.05278,-30.4661 -10.0666,-17.1882 -15.45181,-25.22963 -16.9561,-25.31962 -1.94067,-0.11608 -3.6993,15.39903 -4.39115,38.73992 -0.53706,18.11922 -0.73741,19.60674 -2.6408,19.60674 -1.26689,0 -1.34403,-1.58837 -0.82766,-17.04244 z m 196.28465,15.69401 c -0.2846,-0.74162 -0.51744,-14.13661 -0.51744,-29.76661 0,-15.63 0.23284,-29.02499 0.51744,-29.76661 0.28458,-0.74164 1.0518,-1.34843 1.70493,-1.34843 0.99333,0 1.18749,5.08765 1.18749,31.11504 0,26.02739 -0.19416,31.11504 -1.18749,31.11504 -0.65313,0 -1.42035,-0.60679 -1.70493,-1.34843 z m 65.97497,-0.15413 c 0,-1.69958 9.85572,-27.93182 15.31258,-40.75637 6.72546,-15.80593 10.31007,-21.40568 13.03357,-20.36057 3.28136,1.25917 9.0958,15.93911 17.32136,43.73194 5.01841,16.95637 5.40055,19.16602 3.24039,18.73694 -0.99808,-0.19824 -2.43526,-3.9334 -5.11936,-13.30492 -2.05244,-7.16613 -4.59279,-15.60555 -5.64521,-18.75427 l -1.91349,-5.72496 -9.03678,-0.24067 c -6.72673,-0.17915 -9.2778,0.0498 -9.97968,0.89546 -0.80131,0.96553 -8.22068,19.50473 -13.29891,33.23076 -1.46178,3.95109 -3.91447,5.54676 -3.91447,2.54666 z m 34.10325,-41.76013 c 0.009,-2.71709 -5.27791,-14.70505 -6.48439,-14.70505 -1.45679,0 -8.29336,13.38191 -7.66849,15.01031 0.33672,0.87748 2.23874,1.18656 7.30181,1.18656 5.95041,0 6.84709,-0.19525 6.85107,-1.49182 z"
       style="fill:#666666" />
    <text
       xml:space="preserve"
       style="color:#000000;font-style:normal;font-variant:normal;font-weight:normal;font-stretch:normal;font-size:24.9537487px;line-height:125%;font-family:'Indie Flower';-inkscape-font-specification:'Indie Flower, Normal';text-indent:0;text-align:center;text-decoration:none;text-decoration-line:none;text-decoration-style:solid;text-decoration-color:#000000;letter-spacing:normal;word-spacing:normal;text-transform:none;direction:ltr;block-progression:tb;writing-mode:lr-tb;baseline-shift:baseline;text-anchor:middle;white-space:normal;clip-rule:nonzero;display:inline;overflow:visible;visibility:visible;opacity:1;isolation:auto;mix-blend-mode:normal;color-interpolation:sRGB;color-interpolation-filters:linearRGB;solid-color:#000000;solid-opacity:1;fill:#d45500;fill-opacity:1;fill-rule:nonzero;stroke:none;stroke-width:1.74399996;stroke-linecap:butt;stroke-linejoin:miter;stroke-miterlimit:4;stroke-dasharray:none;stroke-dashoffset:0;stroke-opacity:1;marker:none;color-rendering:auto;image-rendering:auto;shape-rendering:auto;text-rendering:auto;enable-background:accumulate"
       x="77.965118"
       y="906.40167"
       id="text4523"
       sodipodi:linespacing="125%"><tspan
         sodipodi:role="line"
         id="tspan4525"
         x="77.965118"
         y="906.40167">Pequeña</tspan></text>
    <rect
       style="color:#000000;clip-rule:nonzero;display:inline;overflow:visible;visibility:visible;opacity:1;isolation:auto;mix-blend-mode:normal;color-interpolation:sRGB;color-interpolation-filters:linearRGB;solid-color:#000000;solid-opacity:1;fill:#d45500;fill-opacity:1;fill-rule:nonzero;stroke:none;stroke-width:1.74399996;stroke-linecap:butt;stroke-linejoin:miter;stroke-miterlimit:4;stroke-dasharray:none;stroke-dashoffset:0;stroke-opacity:1;marker:none;color-rendering:auto;image-rendering:auto;shape-rendering:auto;text-rendering:auto;enable-background:accumulate"
       id="rect4535"
       width="129.34013"
       height="62.936241"
       x="32.830456"
       y="823.24115"
       ry="6.4002953" />
    <rect
       ry="2.3752995"
       y="798.3443"
       x="32.37019"
       height="23.357113"
       width="130.2607"
       id="rect4537"
       style="color:#000000;clip-rule:nonzero;display:inline;overflow:visible;visibility:visible;opacity:1;isolation:auto;mix-blend-mode:normal;color-interpolation:sRGB;color-interpolation-filters:linearRGB;solid-color:#000000;solid-opacity:1;fill:#dadceb;fill-opacity:1;fill-rule:nonzero;stroke:#d45500;stroke-width:1.12344253;stroke-linecap:butt;stroke-linejoin:miter;stroke-miterlimit:4;stroke-dasharray:none;stroke-dashoffset:0;stroke-opacity:1;marker:none;color-rendering:auto;image-rendering:auto;shape-rendering:auto;text-rendering:auto;enable-background:accumulate" />
    <path
       style="fill:#ffffff"
       d="m 58.437178,875.00073 c -2.52728,-0.33046 -4.61175,-0.96324 -7.05264,-2.14095 -1.95156,-0.94161 -2.69265,-1.48163 -4.49968,-3.27898 -2.40768,-2.39469 -3.60559,-4.31694 -4.51671,-7.24777 -0.49472,-1.59135 -0.57961,-2.39239 -0.57961,-5.469 0,-4.30621 0.43203,-5.8923 2.4109,-8.85095 3.09962,-4.63431 8.60278,-7.2347 15.86054,-7.49451 1.84578,-0.0661 3.47891,-0.19085 3.62916,-0.27728 0.15026,-0.0864 1.39273,-1.49954 2.76105,-3.14024 4.7319,-5.67386 9.13189,-9.26974 10.02534,-8.1932 0.45524,0.54852 0.15224,0.96934 -1.29207,1.7945 -1.72089,0.98318 -4.28817,3.28806 -3.99213,3.5841 0.1237,0.12369 1.21466,0.19232 2.42436,0.1525 l 2.19946,-0.0724 0.20724,-0.80218 c 0.11398,-0.4412 0.4483,-0.93119 0.74292,-1.08887 0.89691,-0.48001 3.4867,-0.0784 8.87291,1.37614 2.78822,0.75293 6.25607,1.56164 7.70632,1.79715 1.45026,0.2355 2.72703,0.50269 2.83726,0.59376 0.60258,0.49776 -7.32178,3.29962 -10.5182,3.71898 -4.46697,0.58604 -7.31546,-0.55203 -9.02728,-3.60673 l -0.55696,-0.99389 -2.82005,-0.0706 c -2.18919,-0.0548 -2.94839,0.0135 -3.39374,0.30531 -0.98553,0.64575 -4.18485,4.61538 -3.92731,4.87292 0.12936,0.12936 0.90123,0.35324 1.71525,0.49751 4.08198,0.72344 6.71774,2.10583 9.6836,5.07882 1.23056,1.23351 2.61262,2.88275 3.07124,3.66498 3.46813,5.91525 3.60422,11.86915 0.38051,16.64702 -1.50978,2.23757 -3.60446,3.89363 -7.18068,5.67703 -5.26448,2.62525 -10.28111,3.60626 -15.171,2.9668 z"
       id="path4539"
       inkscape:connector-curvature="0" />
    <text
       sodipodi:linespacing="125%"
       id="text4501"
       y="867.89441"
       x="123.80061"
       style="color:#000000;font-style:normal;font-variant:normal;font-weight:normal;font-stretch:normal;font-size:29.96169853px;line-height:125%;font-family:'Indie Flower';-inkscape-font-specification:'Indie Flower, Normal';text-indent:0;text-align:center;text-decoration:none;text-decoration-line:none;text-decoration-style:solid;text-decoration-color:#000000;letter-spacing:normal;word-spacing:normal;text-transform:none;direction:ltr;block-progression:tb;writing-mode:lr-tb;baseline-shift:baseline;text-anchor:middle;white-space:normal;clip-rule:nonzero;display:inline;overflow:visible;visibility:visible;opacity:1;isolation:auto;mix-blend-mode:normal;color-interpolation:sRGB;color-interpolation-filters:linearRGB;solid-color:#000000;solid-opacity:1;fill:#000000;fill-opacity:1;fill-rule:nonzero;stroke:none;stroke-width:1.74399996;stroke-linecap:butt;stroke-linejoin:miter;stroke-miterlimit:4;stroke-dasharray:none;stroke-dashoffset:0;stroke-opacity:1;marker:none;color-rendering:auto;image-rendering:auto;shape-rendering:auto;text-rendering:auto;enable-background:accumulate"
       xml:space="preserve"><tspan
         y="867.89441"
         x="123.80061"
         id="tspan4503"
         sodipodi:role="line">3,75€</tspan></text>
    <text
       sodipodi:linespacing="125%"
       id="text4541"
       y="908.38141"
       x="232.49997"
       style="color:#000000;font-style:normal;font-variant:normal;font-weight:normal;font-stretch:normal;font-size:24.9537487px;line-height:125%;font-family:'Indie Flower';-inkscape-font-specification:'Indie Flower, Normal';text-indent:0;text-align:center;text-decoration:none;text-decoration-line:none;text-decoration-style:solid;text-decoration-color:#000000;letter-spacing:normal;word-spacing:normal;text-transform:none;direction:ltr;block-progression:tb;writing-mode:lr-tb;baseline-shift:baseline;text-anchor:middle;white-space:normal;clip-rule:nonzero;display:inline;overflow:visible;visibility:visible;opacity:1;isolation:auto;mix-blend-mode:normal;color-interpolation:sRGB;color-interpolation-filters:linearRGB;solid-color:#000000;solid-opacity:1;fill:#d45500;fill-opacity:1;fill-rule:nonzero;stroke:none;stroke-width:1.74399996;stroke-linecap:butt;stroke-linejoin:miter;stroke-miterlimit:4;stroke-dasharray:none;stroke-dashoffset:0;stroke-opacity:1;marker:none;color-rendering:auto;image-rendering:auto;shape-rendering:auto;text-rendering:auto;enable-background:accumulate"
       xml:space="preserve"><tspan
         y="908.38141"
         x="232.49997"
         id="tspan4543"
         sodipodi:role="line">Grande</tspan></text>
    <rect
       ry="11.299204"
       y="775.06854"
       x="196.14703"
       height="111.10884"
       width="129.34013"
       id="rect4545"
       style="color:#000000;clip-rule:nonzero;display:inline;overflow:visible;visibility:visible;opacity:1;isolation:auto;mix-blend-mode:normal;color-interpolation:sRGB;color-interpolation-filters:linearRGB;solid-color:#000000;solid-opacity:1;fill:#d45500;fill-opacity:1;fill-rule:nonzero;stroke:none;stroke-width:1.74399996;stroke-linecap:butt;stroke-linejoin:miter;stroke-miterlimit:4;stroke-dasharray:none;stroke-dashoffset:0;stroke-opacity:1;marker:none;color-rendering:auto;image-rendering:auto;shape-rendering:auto;text-rendering:auto;enable-background:accumulate" />
    <rect
       style="color:#000000;clip-rule:nonzero;display:inline;overflow:visible;visibility:visible;opacity:1;isolation:auto;mix-blend-mode:normal;color-interpolation:sRGB;color-interpolation-filters:linearRGB;solid-color:#000000;solid-opacity:1;fill:#dadceb;fill-opacity:1;fill-rule:nonzero;stroke:#d45500;stroke-width:1.12344253;stroke-linecap:butt;stroke-linejoin:miter;stroke-miterlimit:4;stroke-dasharray:none;stroke-dashoffset:0;stroke-opacity:1;marker:none;color-rendering:auto;image-rendering:auto;shape-rendering:auto;text-rendering:auto;enable-background:accumulate"
       id="rect4547"
       width="130.2607"
       height="23.357113"
       x="195.68677"
       y="750.3443"
       ry="2.3752995" />
    <path
       inkscape:connector-curvature="0"
       id="path4549"
       d="m 227.00465,851.59815 c -3.32437,-0.43468 -6.06627,-1.26704 -9.27701,-2.81619 -2.56707,-1.23859 -3.54189,-1.94893 -5.91885,-4.31315 -3.16705,-3.14996 -4.74277,-5.67848 -5.94125,-9.53368 -0.65076,-2.09325 -0.76242,-3.14694 -0.76242,-7.19389 0,-5.66437 0.56829,-7.7507 3.17128,-11.64249 4.07723,-6.09595 11.31605,-9.51648 20.86287,-9.85824 2.42793,-0.0869 4.57614,-0.25104 4.77378,-0.36473 0.19765,-0.11365 1.83199,-1.97249 3.63187,-4.13065 6.22431,-7.46337 12.01203,-12.19337 13.18727,-10.77729 0.59882,0.72152 0.20026,1.27506 -1.69958,2.36047 -2.26365,1.29327 -5.64064,4.3251 -5.25123,4.71451 0.16272,0.1627 1.59776,0.25297 3.18899,0.2006 l 2.89316,-0.0952 0.2726,-1.05518 c 0.14993,-0.58035 0.58969,-1.22488 0.97724,-1.4323 1.17979,-0.6314 4.58638,-0.10312 11.67137,1.81017 3.66761,0.9904 8.2292,2.05417 10.13685,2.36396 1.90767,0.30978 3.58712,0.66124 3.73212,0.78103 0.79263,0.65475 -9.63103,4.3403 -13.83558,4.89193 -5.87583,0.77087 -9.62272,-0.72614 -11.87444,-4.74428 l -0.73262,-1.30735 -3.70948,-0.0929 c -2.87964,-0.0721 -3.87829,0.0178 -4.4641,0.4016 -1.29636,0.84942 -5.50473,6.07105 -5.16596,6.40981 0.17016,0.17016 1.18547,0.46465 2.25623,0.65443 5.36941,0.9516 8.83647,2.76999 12.73775,6.68065 1.61867,1.62255 3.43662,3.79195 4.03989,4.82089 4.56196,7.78089 4.74097,15.61261 0.50052,21.8974 -1.98595,2.94328 -4.74129,5.12166 -9.44542,7.46753 -6.92487,3.45324 -13.52372,4.74365 -19.95585,3.90251 z"
       style="fill:#ffffff" />
    <text
       xml:space="preserve"
       style="color:#000000;font-style:normal;font-variant:normal;font-weight:normal;font-stretch:normal;font-size:29.96169853px;line-height:125%;font-family:'Indie Flower';-inkscape-font-specification:'Indie Flower, Normal';text-indent:0;text-align:center;text-decoration:none;text-decoration-line:none;text-decoration-style:solid;text-decoration-color:#000000;letter-spacing:normal;word-spacing:normal;text-transform:none;direction:ltr;block-progression:tb;writing-mode:lr-tb;baseline-shift:baseline;text-anchor:middle;white-space:normal;clip-rule:nonzero;display:inline;overflow:visible;visibility:visible;opacity:1;isolation:auto;mix-blend-mode:normal;color-interpolation:sRGB;color-interpolation-filters:linearRGB;solid-color:#000000;solid-opacity:1;fill:#000000;fill-opacity:1;fill-rule:nonzero;stroke:none;stroke-width:1.74399996;stroke-linecap:butt;stroke-linejoin:miter;stroke-miterlimit:4;stroke-dasharray:none;stroke-dashoffset:0;stroke-opacity:1;marker:none;color-rendering:auto;image-rendering:auto;shape-rendering:auto;text-rendering:auto;enable-background:accumulate"
       x="287.11719"
       y="867.89441"
       id="text4551"
       sodipodi:linespacing="125%"><tspan
         sodipodi:role="line"
         id="tspan4553"
         x="287.11719"
         y="867.89441">5,25€</tspan></text>
    <text
       xml:space="preserve"
       style="color:#000000;font-style:normal;font-variant:normal;font-weight:normal;font-stretch:normal;font-size:24.9537487px;line-height:125%;font-family:'Indie Flower';-inkscape-font-specification:'Indie Flower, Normal';text-indent:0;text-align:center;text-decoration:none;text-decoration-line:none;text-decoration-style:solid;text-decoration-color:#000000;letter-spacing:normal;word-spacing:normal;text-transform:none;direction:ltr;block-progression:tb;writing-mode:lr-tb;baseline-shift:baseline;text-anchor:middle;white-space:normal;clip-rule:nonzero;display:inline;overflow:visible;visibility:visible;opacity:1;isolation:auto;mix-blend-mode:normal;color-interpolation:sRGB;color-interpolation-filters:linearRGB;solid-color:#000000;solid-opacity:1;fill:#d45500;fill-opacity:1;fill-rule:nonzero;stroke:none;stroke-width:1.74399996;stroke-linecap:butt;stroke-linejoin:miter;stroke-miterlimit:4;stroke-dasharray:none;stroke-dashoffset:0;stroke-opacity:1;marker:none;color-rendering:auto;image-rendering:auto;shape-rendering:auto;text-rendering:auto;enable-background:accumulate"
       x="490.48672"
       y="909.04126"
       id="text4555"
       sodipodi:linespacing="125%"><tspan
         sodipodi:role="line"
         id="tspan4557"
         x="490.48672"
         y="909.04126">Estuche de 3 Pequeñas</tspan></text>
    <rect
       style="color:#000000;clip-rule:nonzero;display:inline;overflow:visible;visibility:visible;opacity:1;isolation:auto;mix-blend-mode:normal;color-interpolation:sRGB;color-interpolation-filters:linearRGB;solid-color:#000000;solid-opacity:1;fill:#d45500;fill-opacity:1;fill-rule:nonzero;stroke:none;stroke-width:1.74399996;stroke-linecap:butt;stroke-linejoin:miter;stroke-miterlimit:4;stroke-dasharray:none;stroke-dashoffset:0;stroke-opacity:1;marker:none;color-rendering:auto;image-rendering:auto;shape-rendering:auto;text-rendering:auto;enable-background:accumulate"
       id="rect4559"
       width="105.97842"
       height="62.990128"
       x="377.69553"
       y="819.2251"
       ry="6.4057751" />
    <rect
       ry="2.3773332"
       y="794.30695"
       x="377.31839"
       height="23.377111"
       width="106.73272"
       id="rect4561"
       style="color:#000000;clip-rule:nonzero;display:inline;overflow:visible;visibility:visible;opacity:1;isolation:auto;mix-blend-mode:normal;color-interpolation:sRGB;color-interpolation-filters:linearRGB;solid-color:#000000;solid-opacity:1;fill:#dadceb;fill-opacity:1;fill-rule:nonzero;stroke:#d45500;stroke-width:1.01736963;stroke-linecap:butt;stroke-linejoin:miter;stroke-miterlimit:4;stroke-dasharray:none;stroke-dashoffset:0;stroke-opacity:1;marker:none;color-rendering:auto;image-rendering:auto;shape-rendering:auto;text-rendering:auto;enable-background:accumulate" />
    <rect
       ry="6.4057751"
       y="819.2251"
       x="484.61713"
       height="62.990128"
       width="105.97842"
       id="rect4573"
       style="color:#000000;clip-rule:nonzero;display:inline;overflow:visible;visibility:visible;opacity:1;isolation:auto;mix-blend-mode:normal;color-interpolation:sRGB;color-interpolation-filters:linearRGB;solid-color:#000000;solid-opacity:1;fill:#d45500;fill-opacity:1;fill-rule:nonzero;stroke:none;stroke-width:1.74399996;stroke-linecap:butt;stroke-linejoin:miter;stroke-miterlimit:4;stroke-dasharray:none;stroke-dashoffset:0;stroke-opacity:1;marker:none;color-rendering:auto;image-rendering:auto;shape-rendering:auto;text-rendering:auto;enable-background:accumulate" />
    <rect
       style="color:#000000;clip-rule:nonzero;display:inline;overflow:visible;visibility:visible;opacity:1;isolation:auto;mix-blend-mode:normal;color-interpolation:sRGB;color-interpolation-filters:linearRGB;solid-color:#000000;solid-opacity:1;fill:#dadceb;fill-opacity:1;fill-rule:nonzero;stroke:#d45500;stroke-width:1.01736963;stroke-linecap:butt;stroke-linejoin:miter;stroke-miterlimit:4;stroke-dasharray:none;stroke-dashoffset:0;stroke-opacity:1;marker:none;color-rendering:auto;image-rendering:auto;shape-rendering:auto;text-rendering:auto;enable-background:accumulate"
       id="rect4575"
       width="106.73272"
       height="23.377111"
       x="484.23999"
       y="794.30695"
       ry="2.3773332" />
    <rect
       style="color:#000000;clip-rule:nonzero;display:inline;overflow:visible;visibility:visible;opacity:1;isolation:auto;mix-blend-mode:normal;color-interpolation:sRGB;color-interpolation-filters:linearRGB;solid-color:#000000;solid-opacity:1;fill:#d45500;fill-opacity:1;fill-rule:nonzero;stroke:none;stroke-width:1.74399996;stroke-linecap:butt;stroke-linejoin:miter;stroke-miterlimit:4;stroke-dasharray:none;stroke-dashoffset:0;stroke-opacity:1;marker:none;color-rendering:auto;image-rendering:auto;shape-rendering:auto;text-rendering:auto;enable-background:accumulate"
       id="rect4587"
       width="105.97842"
       height="62.990128"
       x="591.43762"
       y="819.34174"
       ry="6.4057751" />
    <rect
       ry="2.3773332"
       y="794.42358"
       x="591.06049"
       height="23.377111"
       width="106.73272"
       id="rect4589"
       style="color:#000000;clip-rule:nonzero;display:inline;overflow:visible;visibility:visible;opacity:1;isolation:auto;mix-blend-mode:normal;color-interpolation:sRGB;color-interpolation-filters:linearRGB;solid-color:#000000;solid-opacity:1;fill:#dadceb;fill-opacity:1;fill-rule:nonzero;stroke:#d45500;stroke-width:1.01736963;stroke-linecap:butt;stroke-linejoin:miter;stroke-miterlimit:4;stroke-dasharray:none;stroke-dashoffset:0;stroke-opacity:1;marker:none;color-rendering:auto;image-rendering:auto;shape-rendering:auto;text-rendering:auto;enable-background:accumulate" />
    <path
       style="fill:#ffffff"
       d="m 400.58629,871.00073 c -2.52728,-0.33046 -4.61175,-0.96324 -7.05264,-2.14095 -1.95156,-0.94161 -2.69265,-1.48163 -4.49968,-3.27898 -2.40768,-2.39469 -3.60559,-4.31694 -4.51671,-7.24777 -0.49472,-1.59135 -0.57961,-2.39239 -0.57961,-5.469 0,-4.30621 0.43203,-5.8923 2.4109,-8.85095 3.09962,-4.63431 8.60278,-7.2347 15.86054,-7.49451 1.84578,-0.0661 3.47891,-0.19085 3.62916,-0.27728 0.15026,-0.0864 1.39273,-1.49954 2.76105,-3.14024 4.7319,-5.67386 9.13189,-9.26974 10.02534,-8.1932 0.45524,0.54852 0.15224,0.96934 -1.29207,1.7945 -1.72089,0.98318 -4.28817,3.28806 -3.99213,3.5841 0.1237,0.12369 1.21466,0.19232 2.42436,0.1525 l 2.19946,-0.0724 0.20724,-0.80218 c 0.11398,-0.4412 0.4483,-0.93119 0.74292,-1.08887 0.89691,-0.48001 3.4867,-0.0784 8.87291,1.37614 2.78822,0.75293 6.25607,1.56164 7.70632,1.79715 1.45026,0.2355 2.72703,0.50269 2.83726,0.59376 0.60258,0.49776 -7.32178,3.29962 -10.5182,3.71898 -4.46697,0.58604 -7.31546,-0.55203 -9.02728,-3.60673 l -0.55696,-0.99389 -2.82005,-0.0706 c -2.18919,-0.0548 -2.94839,0.0135 -3.39374,0.30531 -0.98553,0.64575 -4.18485,4.61538 -3.92731,4.87292 0.12936,0.12936 0.90123,0.35324 1.71525,0.49751 4.08198,0.72344 6.71774,2.10583 9.6836,5.07882 1.23056,1.23351 2.61262,2.88275 3.07124,3.66498 3.46813,5.91525 3.60422,11.86915 0.38051,16.64702 -1.50978,2.23757 -3.60446,3.89363 -7.18068,5.67703 -5.26448,2.62525 -10.28111,3.60626 -15.171,2.9668 z"
       id="path4599"
       inkscape:connector-curvature="0" />
    <path
       style="fill:#ffffff"
       d="m 507.32447,871.00073 c -2.52728,-0.33046 -4.61175,-0.96324 -7.05264,-2.14095 -1.95156,-0.94161 -2.69265,-1.48163 -4.49968,-3.27898 -2.40768,-2.39469 -3.60559,-4.31694 -4.51671,-7.24777 -0.49472,-1.59135 -0.57961,-2.39239 -0.57961,-5.469 0,-4.30621 0.43203,-5.8923 2.4109,-8.85095 3.09962,-4.63431 8.60278,-7.2347 15.86054,-7.49451 1.84578,-0.0661 3.47891,-0.19085 3.62916,-0.27728 0.15026,-0.0864 1.39273,-1.49954 2.76105,-3.14024 4.7319,-5.67386 9.13189,-9.26974 10.02534,-8.1932 0.45524,0.54852 0.15224,0.96934 -1.29207,1.7945 -1.72089,0.98318 -4.28817,3.28806 -3.99213,3.5841 0.1237,0.12369 1.21466,0.19232 2.42436,0.1525 l 2.19946,-0.0724 0.20724,-0.80218 c 0.11398,-0.4412 0.4483,-0.93119 0.74292,-1.08887 0.89691,-0.48001 3.4867,-0.0784 8.87291,1.37614 2.78822,0.75293 6.25607,1.56164 7.70632,1.79715 1.45026,0.2355 2.72703,0.50269 2.83726,0.59376 0.60258,0.49776 -7.32178,3.29962 -10.5182,3.71898 -4.46697,0.58604 -7.31546,-0.55203 -9.02728,-3.60673 l -0.55696,-0.99389 -2.82005,-0.0706 c -2.18919,-0.0548 -2.94839,0.0135 -3.39374,0.30531 -0.98553,0.64575 -4.18485,4.61538 -3.92731,4.87292 0.12936,0.12936 0.90123,0.35324 1.71525,0.49751 4.08198,0.72344 6.71774,2.10583 9.6836,5.07882 1.23056,1.23351 2.61262,2.88275 3.07124,3.66498 3.46813,5.91525 3.60422,11.86915 0.38051,16.64702 -1.50978,2.23757 -3.60446,3.89363 -7.18068,5.67703 -5.26448,2.62525 -10.28111,3.60626 -15.171,2.9668 z"
       id="path4605"
       inkscape:connector-curvature="0" />
    <path
       inkscape:connector-curvature="0"
       id="path4607"
       d="m 613.71356,871.00073 c -2.52728,-0.33046 -4.61175,-0.96324 -7.05264,-2.14095 -1.95156,-0.94161 -2.69265,-1.48163 -4.49968,-3.27898 -2.40768,-2.39469 -3.60559,-4.31694 -4.51671,-7.24777 -0.49472,-1.59135 -0.57961,-2.39239 -0.57961,-5.469 0,-4.30621 0.43203,-5.8923 2.4109,-8.85095 3.09962,-4.63431 8.60278,-7.2347 15.86054,-7.49451 1.84578,-0.0661 3.47891,-0.19085 3.62916,-0.27728 0.15026,-0.0864 1.39273,-1.49954 2.76105,-3.14024 4.7319,-5.67386 9.13189,-9.26974 10.02534,-8.1932 0.45524,0.54852 0.15224,0.96934 -1.29207,1.7945 -1.72089,0.98318 -4.28817,3.28806 -3.99213,3.5841 0.1237,0.12369 1.21466,0.19232 2.42436,0.1525 l 2.19946,-0.0724 0.20724,-0.80218 c 0.11398,-0.4412 0.4483,-0.93119 0.74292,-1.08887 0.89691,-0.48001 3.4867,-0.0784 8.87291,1.37614 2.78822,0.75293 6.25607,1.56164 7.70632,1.79715 1.45026,0.2355 2.72703,0.50269 2.83726,0.59376 0.60258,0.49776 -7.32178,3.29962 -10.5182,3.71898 -4.46697,0.58604 -7.31546,-0.55203 -9.02728,-3.60673 l -0.55696,-0.99389 -2.82005,-0.0706 c -2.18919,-0.0548 -2.94839,0.0135 -3.39374,0.30531 -0.98553,0.64575 -4.18485,4.61538 -3.92731,4.87292 0.12936,0.12936 0.90123,0.35324 1.71525,0.49751 4.08198,0.72344 6.71774,2.10583 9.6836,5.07882 1.23056,1.23351 2.61262,2.88275 3.07124,3.66498 3.46813,5.91525 3.60422,11.86915 0.38051,16.64702 -1.50978,2.23757 -3.60446,3.89363 -7.18068,5.67703 -5.26448,2.62525 -10.28111,3.60626 -15.171,2.9668 z"
       style="opacity:0.58499995;fill:#ffffff" />
    <text
       sodipodi:linespacing="125%"
       id="text4601"
       y="863.89441"
       x="658.64014"
       style="color:#000000;font-style:normal;font-variant:normal;font-weight:normal;font-stretch:normal;font-size:29.96169853px;line-height:125%;font-family:'Indie Flower';-inkscape-font-specification:'Indie Flower, Normal';text-indent:0;text-align:center;text-decoration:none;text-decoration-line:none;text-decoration-style:solid;text-decoration-color:#000000;letter-spacing:normal;word-spacing:normal;text-transform:none;direction:ltr;block-progression:tb;writing-mode:lr-tb;baseline-shift:baseline;text-anchor:middle;white-space:normal;clip-rule:nonzero;display:inline;overflow:visible;visibility:visible;opacity:1;isolation:auto;mix-blend-mode:normal;color-interpolation:sRGB;color-interpolation-filters:linearRGB;solid-color:#000000;solid-opacity:1;fill:#000000;fill-opacity:1;fill-rule:nonzero;stroke:none;stroke-width:1.74399996;stroke-linecap:butt;stroke-linejoin:miter;stroke-miterlimit:4;stroke-dasharray:none;stroke-dashoffset:0;stroke-opacity:1;marker:none;color-rendering:auto;image-rendering:auto;shape-rendering:auto;text-rendering:auto;enable-background:accumulate"
       xml:space="preserve"><tspan
         y="863.89441"
         x="658.64014"
         id="tspan4603"
         sodipodi:role="line">13,00€</tspan></text>
    <flowRoot
       transform="matrix(1,0,0,1.2198858,-23.114733,-79.997671)"
       style="color:#000000;font-style:normal;font-variant:normal;font-weight:normal;font-stretch:normal;font-size:22.5px;line-height:125%;font-family:'Indie Flower';-inkscape-font-specification:'Indie Flower, Normal';text-indent:0;text-align:center;text-decoration:none;text-decoration-line:none;text-decoration-style:solid;text-decoration-color:#000000;letter-spacing:normal;word-spacing:normal;text-transform:none;direction:ltr;block-progression:tb;writing-mode:lr-tb;baseline-shift:baseline;text-anchor:middle;white-space:normal;clip-rule:nonzero;display:inline;overflow:visible;visibility:visible;opacity:1;isolation:auto;mix-blend-mode:normal;color-interpolation:sRGB;color-interpolation-filters:linearRGB;solid-color:#000000;solid-opacity:1;fill:#d45500;fill-opacity:1;fill-rule:nonzero;stroke:none;stroke-width:2.04399991;stroke-linecap:butt;stroke-linejoin:miter;stroke-miterlimit:4;stroke-dasharray:none;stroke-dashoffset:0;stroke-opacity:1;marker:none;color-rendering:auto;image-rendering:auto;shape-rendering:auto;text-rendering:auto;enable-background:accumulate"
       id="flowRoot4645"
       xml:space="preserve"><flowRegion
         id="flowRegion4647"><rect
           style="font-style:normal;font-variant:normal;font-weight:normal;font-stretch:normal;font-size:22.5px;line-height:125%;font-family:'Indie Flower';-inkscape-font-specification:'Indie Flower, Normal';text-align:center;writing-mode:lr-tb;text-anchor:middle;fill:#d45500;fill-opacity:1;stroke:none"
           y="275.00159"
           x="56.751282"
           height="131.88329"
           width="683.17786"
           id="rect4649" /></flowRegion><flowPara
         id="flowPara4735">Productos elaborados artesanalmente y con sabor peculiar, </flowPara><flowPara
         id="flowPara4751">destacando el origen de los cítricos y sus diferentes variedades, </flowPara><flowPara
         id="flowPara4749">con una receta propuesta por Bernd Knöller, chef del Restaurante Riff.</flowPara><flowPara
         id="flowPara4667" /><flowPara
         id="flowPara4669" /><flowPara
         id="flowPara4671" /><flowPara
         id="flowPara4673" /></flowRoot>    <flowRoot
       transform="matrix(0.70115329,0,0,1.1899315,-108.9172,646.02293)"
       style="color:#000000;font-style:normal;font-variant:normal;font-weight:normal;font-stretch:normal;font-size:26.23987389px;line-height:125%;font-family:'Indie Flower';-inkscape-font-specification:'Indie Flower, Normal';text-indent:0;text-align:center;text-decoration:none;text-decoration-line:none;text-decoration-style:solid;text-decoration-color:#000000;letter-spacing:normal;word-spacing:normal;text-transform:none;direction:ltr;block-progression:tb;writing-mode:lr-tb;baseline-shift:baseline;text-anchor:middle;white-space:normal;clip-rule:nonzero;display:inline;overflow:visible;visibility:visible;opacity:1;isolation:auto;mix-blend-mode:normal;color-interpolation:sRGB;color-interpolation-filters:linearRGB;solid-color:#000000;solid-opacity:1;fill:#000000;fill-opacity:1;fill-rule:nonzero;stroke:none;stroke-width:2.04399991;stroke-linecap:butt;stroke-linejoin:miter;stroke-miterlimit:4;stroke-dasharray:none;stroke-dashoffset:0;stroke-opacity:1;marker:none;color-rendering:auto;image-rendering:auto;shape-rendering:auto;text-rendering:auto;enable-background:accumulate"
       id="flowRoot4685"
       xml:space="preserve"><flowRegion
         id="flowRegion4687"><rect
           style="font-style:normal;font-variant:normal;font-weight:normal;font-stretch:normal;font-size:26.23987389px;line-height:125%;font-family:'Indie Flower';-inkscape-font-specification:'Indie Flower, Normal';text-align:center;writing-mode:lr-tb;text-anchor:middle;fill:#000000;fill-opacity:1;stroke:none"
           y="275.00159"
           x="56.751282"
           height="74.537415"
           width="1125.8942"
           id="rect4689" /></flowRegion><flowPara
         id="flowPara4793">Mermeladas elaboradas por Novaterra Catering para Demandarina</flowPara><flowPara
         id="flowPara4795" /><flowPara
         id="flowPara4797" /><flowPara
         id="flowPara4799" /><flowPara
         id="flowPara4801" /></flowRoot>    <flowRoot
       xml:space="preserve"
       id="flowRoot4753"
       style="color:#000000;font-style:normal;font-variant:normal;font-weight:normal;font-stretch:normal;font-size:15px;line-height:125%;font-family:'Indie Flower';-inkscape-font-specification:'Indie Flower, Normal';text-indent:0;text-align:center;text-decoration:none;text-decoration-line:none;text-decoration-style:solid;text-decoration-color:#000000;letter-spacing:normal;word-spacing:normal;text-transform:none;direction:ltr;block-progression:tb;writing-mode:lr-tb;baseline-shift:baseline;text-anchor:middle;white-space:normal;clip-rule:nonzero;display:inline;overflow:visible;visibility:visible;opacity:1;isolation:auto;mix-blend-mode:normal;color-interpolation:sRGB;color-interpolation-filters:linearRGB;solid-color:#000000;solid-opacity:1;fill:#000000;fill-opacity:1;fill-rule:nonzero;stroke:none;stroke-width:2.25756598;stroke-linecap:butt;stroke-linejoin:miter;stroke-miterlimit:4;stroke-dasharray:none;stroke-dashoffset:0;stroke-opacity:1;marker:none;color-rendering:auto;image-rendering:auto;shape-rendering:auto;text-rendering:auto;enable-background:accumulate"
       transform="matrix(0.90143009,0,0,1,-19.635049,0.93323756)"><flowRegion
         id="flowRegion4755"><rect
           id="rect4757"
           width="609.40417"
           height="83.058151"
           x="220.24408"
           y="182.58475"
           style="color:#000000;font-style:normal;font-variant:normal;font-weight:normal;font-stretch:normal;font-size:15px;line-height:125%;font-family:'Indie Flower';-inkscape-font-specification:'Indie Flower, Normal';text-align:center;writing-mode:lr-tb;text-anchor:middle;clip-rule:nonzero;display:inline;overflow:visible;visibility:visible;isolation:auto;mix-blend-mode:normal;color-interpolation:sRGB;color-interpolation-filters:linearRGB;solid-color:#000000;solid-opacity:1;fill:#000000;fill-opacity:1;fill-rule:nonzero;stroke:none;stroke-width:2.25756598;stroke-linecap:butt;stroke-linejoin:miter;stroke-miterlimit:4;stroke-dasharray:none;stroke-dashoffset:0;stroke-opacity:1;marker:none;color-rendering:auto;image-rendering:auto;shape-rendering:auto;text-rendering:auto;enable-background:accumulate" /></flowRegion><flowPara
         id="flowPara4759">es una empresa valenciana que quiere contribuir a revalorizar una parte de nuestro patrimonio, las naranjas y mandarinas mediante la transformación artesanal de estos productos</flowPara></flowRoot>    <g
       id="g5122"
       transform="matrix(0.70999218,0,0,0.70999218,-130.56799,-138.9466)">
      <path
         inkscape:connector-curvature="0"
         id="path4208"
         d="m 1078.1641,1644.4579 c -8.77,-1.1468 -16.0033,-3.3424 -24.4732,-7.4293 -6.7722,-3.2674 -9.344,-5.1414 -15.6145,-11.3783 -8.3548,-8.3097 -12.5115,-14.9801 -15.6734,-25.1503 -1.7166,-5.5221 -2.0112,-8.3021 -2.0112,-18.9783 0,-14.943 1.4992,-20.4468 8.3661,-30.7137 10.7558,-16.0814 29.8524,-25.1052 55.0376,-26.0068 6.4051,-0.2283 12.0721,-0.6623 12.5935,-0.962 0.5211,-0.3017 4.8327,-5.2037 9.5809,-10.8971 16.4202,-19.6886 31.6885,-32.1669 34.7887,-28.4313 1.5796,1.9036 0.5284,3.3637 -4.4834,6.2272 -5.9715,3.4116 -14.8804,11.4101 -13.8531,12.4373 0.4294,0.429 4.2151,0.6673 8.4127,0.5292 l 7.6324,-0.2514 0.719,-2.7839 c 0.3958,-1.5309 1.5557,-3.2313 2.5781,-3.7783 3.1127,-1.6655 12.0993,-0.2707 30.79,4.7755 9.6752,2.6125 21.709,5.4187 26.7417,6.2361 5.0323,0.8173 9.4628,1.7444 9.8453,2.0605 2.0911,1.727 -25.4072,11.4498 -36.4991,12.9049 -15.5009,2.0339 -25.3853,-1.9154 -31.3255,-12.5154 l -1.9328,-3.4488 -9.7857,-0.2437 c -7.5965,-0.1895 -10.2311,0.047 -11.7767,1.0595 -3.4197,2.2408 -14.5217,16.0157 -13.6279,16.9092 0.4487,0.449 3.1274,1.2257 5.9521,1.7267 14.1649,2.5103 23.3112,7.3074 33.603,17.6239 4.2703,4.2804 9.0658,10.0036 10.6575,12.7178 12.0346,20.5265 12.5069,41.1872 1.3202,57.7664 -5.2389,7.7652 -12.5077,13.5115 -24.9176,19.7001 -18.268,9.1098 -35.6765,12.5142 -52.6447,10.2951 z"
         style="fill:#a0b81f;fill-opacity:1" />
      <g
         id="g4314"
         transform="matrix(0.6415711,0,0,-0.6415711,1055.9002,1621.0416)"
         style="fill:#000000;fill-opacity:0">
        <path
           d="m 0,0 c -17.979,0 -32.551,14.576 -32.551,32.553 l 0,48.184 c 0,17.979 14.572,32.555 32.551,32.555 l 109.799,0 c 17.98,0 32.555,-14.576 32.555,-32.555 l 0,-48.184 C 142.354,14.576 127.779,0 109.799,0 L 0,0 Z"
           style="fill:#000000;fill-opacity:0;fill-rule:nonzero;stroke:none"
           id="path4316"
           inkscape:connector-curvature="0" />
      </g>
      <g
         id="g4318"
         transform="matrix(0.6415711,0,0,-0.6415711,1140.0262,1582.0035)">
        <path
           d="m 0,0 c 0,-1.338 -1.629,-2.428 -3.635,-2.428 l -151.867,0 c -2.01,0 -3.635,1.09 -3.635,2.428 0,1.344 1.625,2.432 3.635,2.432 l 151.867,0 C -1.629,2.432 0,1.344 0,0"
           style="fill:#ffffff;fill-opacity:1;fill-rule:nonzero;stroke:none"
           id="path4320"
           inkscape:connector-curvature="0" />
      </g>
      <g
         id="g4322"
         transform="matrix(0.6415711,0,0,-0.6415711,1088.022,1598.3335)">
        <path
           d="m 0,0 c 0,0 0.048,5.34 2.614,7.904 2.567,2.565 3.334,6.412 5.649,11.032 2.302,4.619 4.614,3.845 5.641,4.875 1.025,1.025 -3.078,1.537 -9.491,-1.797 -6.416,-3.336 -3.85,-9.493 -11.549,-5.385 -7.694,4.101 -15.647,8.219 -21.292,7.955 -5.641,-0.26 -10.26,1.277 -4.362,-2.314 5.901,-3.592 10.52,-4.875 13.087,-10.004 2.566,-5.133 8.968,-14.707 8.968,-14.707 L 0,0 Z"
           style="fill:#ffffff;fill-opacity:1;fill-rule:nonzero;stroke:none"
           id="path4324"
           inkscape:connector-curvature="0" />
      </g>
      <g
         id="g4326"
         transform="matrix(0.6415711,0,0,-0.6415711,1091.1052,1595.5291)">
        <path
           d="M 0,0 -22.842,-5.043 -17.188,-26.721 6.59,-16.357 0,0 Z"
           style="fill:#ffffff;fill-opacity:1;fill-rule:nonzero;stroke:none"
           id="path4328"
           inkscape:connector-curvature="0" />
      </g>
      <g
         id="g4330"
         transform="matrix(0.6415711,0,0,-0.6415711,1091.0933,1599.5026)">
        <path
           d="m 0,0 c -0.313,-1.311 -1.633,-2.121 -2.945,-1.811 -1.314,0.317 -2.118,1.631 -1.807,2.946 0.312,1.31 1.629,2.117 2.939,1.806 C -0.498,2.631 0.312,1.313 0,0"
           style="fill:#8eb026;fill-opacity:1;fill-rule:nonzero;stroke:none"
           id="path4332"
           inkscape:connector-curvature="0" />
      </g>
      <g
         id="g4334"
         transform="matrix(0.6415711,0,0,-0.6415711,1051.8616,1573.6662)">
        <path
           d="M 0,0 C -0.275,-0.027 -0.561,-0.055 -0.854,-0.083 -1.148,-0.11 -1.438,-0.128 -1.723,-0.138 -2.008,-0.146 -2.26,-0.151 -2.48,-0.151 l -6.753,11.824 c -0.111,0.221 -0.253,0.532 -0.427,0.936 -0.175,0.405 -0.318,0.79 -0.428,1.159 l -0.248,-0.028 c 0.037,-0.313 0.069,-0.685 0.097,-1.116 0.027,-0.433 0.041,-0.796 0.041,-1.089 l 0,-8.545 c 0,-1.212 -0.248,-2.062 -0.744,-2.549 -0.496,-0.487 -1.204,-0.73 -2.122,-0.73 -0.699,0 -1.287,0.175 -1.764,0.523 -0.479,0.349 -0.717,0.938 -0.717,1.764 l 0,0.773 1.351,0 c 0.367,0 0.606,0.068 0.716,0.206 0.111,0.137 0.165,0.39 0.165,0.757 l 0,14.636 c 0.257,0.037 0.547,0.073 0.869,0.11 0.321,0.038 0.643,0.065 0.965,0.083 0.321,0.018 0.633,0.032 0.937,0.041 0.303,0.009 0.573,0.014 0.813,0.014 l 6.367,-11.19 c 0.146,-0.257 0.302,-0.57 0.468,-0.937 0.165,-0.368 0.312,-0.754 0.441,-1.158 l 0.248,0.028 C -2.242,5.747 -2.278,6.137 -2.315,6.532 -2.353,6.928 -2.37,7.281 -2.37,7.594 l 0,10.969 3.114,0 0,-18.466 C 0.523,0.06 0.275,0.027 0,0"
           style="fill:#161315;fill-opacity:1;fill-rule:nonzero;stroke:none"
           id="path4336"
           inkscape:connector-curvature="0" />
      </g>
      <g
         id="g4338"
         transform="matrix(0.6415711,0,0,-0.6415711,1062.6129,1567.716)">
        <path
           d="M 0,0 C 0,1.269 -0.092,2.324 -0.275,3.17 -0.459,4.015 -0.726,4.695 -1.074,5.21 -1.424,5.724 -1.855,6.087 -2.37,6.299 -2.885,6.51 -3.473,6.615 -4.134,6.615 -4.813,6.615 -5.416,6.51 -5.939,6.299 -6.463,6.087 -6.895,5.724 -7.234,5.21 -7.575,4.695 -7.832,4.015 -8.007,3.17 -8.182,2.324 -8.269,1.269 -8.269,0 c 0,-1.212 0.079,-2.237 0.235,-3.073 0.156,-0.836 0.404,-1.516 0.744,-2.039 0.34,-0.524 0.771,-0.906 1.296,-1.144 0.523,-0.239 1.143,-0.358 1.86,-0.358 0.717,0 1.337,0.114 1.861,0.343 0.523,0.231 0.955,0.603 1.294,1.118 0.34,0.513 0.588,1.193 0.745,2.039 C -0.078,-2.27 0,-1.23 0,0 M 3.693,0 C 3.693,-1.672 3.505,-3.109 3.129,-4.313 2.752,-5.517 2.219,-6.509 1.53,-7.29 0.841,-8.071 0.015,-8.646 -0.95,-9.013 c -0.965,-0.367 -2.027,-0.55 -3.184,-0.55 -1.194,0 -2.274,0.178 -3.238,0.537 -0.965,0.358 -1.788,0.919 -2.467,1.681 -0.681,0.762 -1.204,1.741 -1.571,2.936 -0.368,1.193 -0.552,2.627 -0.552,4.299 0,1.598 0.184,3.005 0.552,4.217 0.367,1.213 0.895,2.223 1.585,3.032 0.688,0.808 1.515,1.415 2.48,1.819 0.965,0.404 2.034,0.606 3.211,0.606 1.195,0 2.274,-0.183 3.238,-0.55 C 0.069,8.646 0.892,8.071 1.571,7.291 2.251,6.51 2.774,5.518 3.143,4.313 3.51,3.11 3.693,1.672 3.693,0"
           style="fill:#161315;fill-opacity:1;fill-rule:nonzero;stroke:none"
           id="path4340"
           inkscape:connector-curvature="0" />
      </g>
      <g
         id="g4342"
         transform="matrix(0.6415711,0,0,-0.6415711,1076.1579,1561.8629)">
        <path
           d="m 0,0 c -0.827,-3.16 -1.709,-6.261 -2.646,-9.302 -0.937,-3.041 -1.929,-6.077 -2.977,-9.109 l -3.831,0 -4.575,14.801 c -0.111,0.367 -0.243,0.62 -0.4,0.757 -0.156,0.138 -0.399,0.207 -0.73,0.207 l -1.103,0 0,1.02 c 0,1.378 0.782,2.067 2.343,2.067 0.734,0 1.364,-0.17 1.888,-0.509 0.524,-0.341 0.914,-0.997 1.172,-1.971 L -7.8,-13.036 c 0.073,-0.258 0.133,-0.511 0.179,-0.759 0.046,-0.248 0.087,-0.5 0.124,-0.758 l 0.248,0 c 0.019,0.258 0.046,0.515 0.083,0.773 0.036,0.257 0.101,0.505 0.192,0.744 l 3.777,13.34 c 0.22,0 0.468,-0.005 0.744,-0.014 0.275,-0.01 0.56,-0.027 0.854,-0.056 C -1.305,0.207 -1.016,0.175 -0.73,0.139 -0.445,0.102 -0.202,0.056 0,0"
           style="fill:#161315;fill-opacity:1;fill-rule:nonzero;stroke:none"
           id="path4344"
           inkscape:connector-curvature="0" />
      </g>
      <g
         id="g4346"
         transform="matrix(0.6415711,0,0,-0.6415711,1081.7811,1564.9042)">
        <path
           d="M 0,0 C -0.037,0.092 -0.083,0.275 -0.138,0.551 -0.193,0.827 -0.221,1.12 -0.221,1.434 l -0.22,0 C -0.441,1.12 -0.464,0.827 -0.51,0.551 -0.556,0.275 -0.598,0.092 -0.634,0 l -1.736,-5.898 4.134,0 L 0,0 Z m 7.47,-13.506 c -0.533,-0.11 -1.08,-0.187 -1.641,-0.234 -0.56,-0.045 -1.135,-0.069 -1.723,-0.069 l -1.515,5.072 -5.761,0 -0.827,-2.867 c -0.22,-0.771 -0.542,-1.355 -0.964,-1.75 -0.423,-0.395 -1.02,-0.592 -1.792,-0.592 -0.827,0 -1.424,0.183 -1.791,0.55 -0.368,0.368 -0.552,0.947 -0.552,1.737 l 0,0.8 1.158,0 c 0.368,0 0.606,0.068 0.716,0.206 0.111,0.138 0.23,0.39 0.359,0.758 l 4.823,14.801 3.776,0 c 1.03,-3.087 2.026,-6.17 2.991,-9.247 0.964,-3.078 1.878,-6.133 2.743,-9.165"
           style="fill:#161315;fill-opacity:1;fill-rule:nonzero;stroke:none"
           id="path4348"
           inkscape:connector-curvature="0" />
      </g>
      <g
         id="g4350"
         transform="matrix(0.6415711,0,0,-0.6415711,1095.2115,1562.7294)">
        <path
           d="m 0,0 c -0.047,-0.532 -0.115,-1.038 -0.207,-1.516 l -4.272,0 0,-15.545 -3.446,0 0,15.545 -2.287,0 c -0.368,0 -0.616,-0.059 -0.744,-0.178 -0.129,-0.12 -0.193,-0.355 -0.193,-0.703 l 0,-1.13 -0.634,0 c -0.772,0 -1.342,0.211 -1.709,0.633 -0.367,0.423 -0.551,1.02 -0.551,1.792 0,0.882 0.257,1.539 0.772,1.971 0.513,0.431 1.194,0.648 2.039,0.648 l 11.3,0 C 0.068,1.038 0.045,0.533 0,0"
           style="fill:#ffffff;fill-opacity:1;fill-rule:nonzero;stroke:none"
           id="path4352"
           inkscape:connector-curvature="0" />
      </g>
      <g
         id="g4354"
         transform="matrix(0.6415711,0,0,-0.6415711,1104.3977,1572.6844)">
        <path
           d="m 0,0 c -0.055,-0.515 -0.12,-1.029 -0.192,-1.544 l -10.832,0 0,18.577 10.638,0 c 0,-0.46 -0.023,-0.961 -0.069,-1.502 -0.046,-0.543 -0.106,-1.052 -0.179,-1.53 l -6.945,0 0,-4.492 5.153,0 0,-2.977 -5.153,0 0,-5.044 7.662,0 C 0.083,1.01 0.056,0.514 0,0"
           style="fill:#ffffff;fill-opacity:1;fill-rule:nonzero;stroke:none"
           id="path4356"
           inkscape:connector-curvature="0" />
      </g>
      <g
         id="g4358"
         transform="matrix(0.6415711,0,0,-0.6415711,1112.938,1565.2581)">
        <path
           d="m 0,0 c 0,1.084 -0.257,1.833 -0.771,2.247 -0.515,0.413 -1.213,0.62 -2.095,0.62 -0.349,0 -0.722,-0.018 -1.116,-0.055 C -4.378,2.774 -4.75,2.711 -5.099,2.619 l 0,-5.926 1.874,0 c 1.048,0 1.847,0.244 2.399,0.731 C -0.275,-2.09 0,-1.23 0,0 m 4.7,-12.885 c -0.341,-0.34 -0.887,-0.51 -1.64,-0.51 -0.68,0 -1.25,0.162 -1.709,0.483 -0.459,0.321 -0.928,0.941 -1.406,1.86 l -2.756,5.126 -2.288,0 0,-7.193 -3.362,0 0,14.856 c 0,0.367 -0.056,0.611 -0.166,0.731 -0.109,0.119 -0.34,0.178 -0.688,0.178 l -1.324,0 0,0.938 c 0,0.808 0.23,1.368 0.69,1.681 0.459,0.312 1.019,0.468 1.68,0.468 0.534,0 1.03,-0.069 1.489,-0.207 0.459,-0.137 0.854,-0.372 1.185,-0.702 0.57,0.367 1.135,0.611 1.696,0.731 0.559,0.119 1.133,0.178 1.722,0.178 0.772,0 1.502,-0.105 2.192,-0.317 C 0.703,5.205 1.3,4.874 1.806,4.424 2.311,3.974 2.715,3.399 3.019,2.701 3.321,2.003 3.474,1.176 3.474,0.221 3.474,-1.047 3.197,-2.127 2.646,-3.018 2.095,-3.909 1.305,-4.538 0.276,-4.905 l 2.536,-4.466 c 0.202,-0.349 0.385,-0.592 0.551,-0.731 0.165,-0.137 0.422,-0.206 0.772,-0.206 l 1.075,0 0,-1.019 c 0,-0.699 -0.17,-1.218 -0.51,-1.558"
           style="fill:#ffffff;fill-opacity:1;fill-rule:nonzero;stroke:none"
           id="path4360"
           inkscape:connector-curvature="0" />
      </g>
      <g
         id="g4362"
         transform="matrix(0.6415711,0,0,-0.6415711,1124.3786,1565.2581)">
        <path
           d="m 0,0 c 0,1.084 -0.257,1.833 -0.771,2.247 -0.515,0.413 -1.213,0.62 -2.095,0.62 -0.349,0 -0.722,-0.018 -1.116,-0.055 C -4.378,2.774 -4.75,2.711 -5.099,2.619 l 0,-5.926 1.874,0 c 1.048,0 1.847,0.244 2.399,0.731 C -0.275,-2.09 0,-1.23 0,0 m 4.7,-12.885 c -0.341,-0.34 -0.887,-0.51 -1.64,-0.51 -0.68,0 -1.25,0.162 -1.709,0.483 -0.459,0.321 -0.928,0.941 -1.406,1.86 l -2.756,5.126 -2.288,0 0,-7.193 -3.362,0 0,14.856 c 0,0.367 -0.056,0.611 -0.166,0.731 -0.109,0.119 -0.34,0.178 -0.688,0.178 l -1.324,0 0,0.938 c 0,0.808 0.23,1.368 0.69,1.681 0.459,0.312 1.019,0.468 1.68,0.468 0.534,0 1.03,-0.069 1.489,-0.207 0.459,-0.137 0.854,-0.372 1.185,-0.702 0.57,0.367 1.135,0.611 1.696,0.731 0.559,0.119 1.133,0.178 1.722,0.178 0.772,0 1.502,-0.105 2.192,-0.317 C 0.703,5.205 1.3,4.874 1.806,4.424 2.311,3.974 2.715,3.399 3.019,2.701 3.321,2.003 3.474,1.176 3.474,0.221 3.474,-1.047 3.197,-2.127 2.646,-3.018 2.095,-3.909 1.305,-4.538 0.276,-4.905 l 2.536,-4.466 c 0.202,-0.349 0.385,-0.592 0.551,-0.731 0.165,-0.137 0.422,-0.206 0.772,-0.206 l 1.075,0 0,-1.019 c 0,-0.699 -0.17,-1.218 -0.51,-1.558"
           style="fill:#ffffff;fill-opacity:1;fill-rule:nonzero;stroke:none"
           id="path4364"
           inkscape:connector-curvature="0" />
      </g>
      <g
         id="g4366"
         transform="matrix(0.6415711,0,0,-0.6415711,1133.6444,1564.9042)">
        <path
           d="M 0,0 C -0.037,0.092 -0.083,0.275 -0.138,0.551 -0.193,0.827 -0.221,1.12 -0.221,1.434 l -0.22,0 C -0.441,1.12 -0.464,0.827 -0.51,0.551 -0.556,0.275 -0.598,0.092 -0.634,0 l -1.736,-5.898 4.134,0 L 0,0 Z m 7.47,-13.506 c -0.533,-0.11 -1.08,-0.187 -1.641,-0.234 -0.56,-0.045 -1.135,-0.069 -1.723,-0.069 l -1.515,5.072 -5.761,0 -0.827,-2.867 c -0.22,-0.771 -0.542,-1.355 -0.964,-1.75 -0.423,-0.395 -1.02,-0.592 -1.792,-0.592 -0.827,0 -1.424,0.183 -1.791,0.55 -0.368,0.368 -0.552,0.947 -0.552,1.737 l 0,0.8 1.158,0 c 0.368,0 0.606,0.068 0.716,0.206 0.111,0.138 0.23,0.39 0.359,0.758 l 4.823,14.801 3.776,0 c 1.03,-3.087 2.026,-6.17 2.991,-9.247 0.964,-3.078 1.878,-6.133 2.743,-9.165"
           style="fill:#ffffff;fill-opacity:1;fill-rule:nonzero;stroke:none"
           id="path4368"
           inkscape:connector-curvature="0" />
      </g>
      <g
         id="g4370"
         transform="matrix(0.6415711,0,0,-0.6415711,1103.7135,1603.3821)">
        <path
           d="m 0,0 c 0,-0.363 -0.074,-0.68 -0.221,-0.948 -0.147,-0.27 -0.341,-0.489 -0.579,-0.657 -0.238,-0.169 -0.515,-0.294 -0.832,-0.377 -0.316,-0.082 -0.643,-0.123 -0.981,-0.123 -0.365,0 -0.733,0.041 -1.105,0.123 -0.373,0.083 -0.698,0.197 -0.975,0.344 0.052,0.242 0.106,0.47 0.163,0.683 0.055,0.212 0.119,0.431 0.188,0.656 0.269,-0.147 0.585,-0.26 0.948,-0.338 0.365,-0.078 0.711,-0.117 1.04,-0.117 0.295,0 0.505,0.061 0.631,0.183 0.126,0.121 0.189,0.29 0.189,0.507 0,0.19 -0.076,0.339 -0.228,0.448 -0.151,0.108 -0.342,0.206 -0.572,0.293 -0.229,0.086 -0.477,0.173 -0.74,0.26 -0.265,0.085 -0.512,0.203 -0.741,0.35 -0.23,0.148 -0.421,0.338 -0.573,0.572 -0.151,0.235 -0.227,0.537 -0.227,0.911 0,0.364 0.073,0.682 0.22,0.955 0.148,0.273 0.347,0.499 0.599,0.676 0.251,0.177 0.541,0.312 0.871,0.403 0.329,0.091 0.676,0.136 1.04,0.136 0.225,0 0.489,-0.017 0.793,-0.051 C -0.789,4.854 -0.507,4.802 -0.247,4.732 -0.256,4.533 -0.279,4.316 -0.318,4.082 -0.357,3.849 -0.403,3.619 -0.455,3.394 c -0.112,0.043 -0.245,0.08 -0.397,0.11 -0.151,0.03 -0.307,0.057 -0.467,0.078 -0.161,0.022 -0.322,0.039 -0.482,0.052 -0.16,0.012 -0.309,0.019 -0.448,0.019 -0.546,0 -0.819,-0.238 -0.819,-0.715 0,-0.173 0.076,-0.312 0.227,-0.416 0.152,-0.104 0.34,-0.197 0.566,-0.279 C -2.05,2.16 -1.803,2.074 -1.534,1.983 -1.266,1.892 -1.019,1.767 -0.793,1.605 -0.567,1.445 -0.379,1.239 -0.228,0.988 -0.076,0.737 0,0.407 0,0"
           style="fill:#ffffff;fill-opacity:1;fill-rule:nonzero;stroke:none"
           id="path4372"
           inkscape:connector-curvature="0" />
      </g>
      <g
         id="g4374"
         transform="matrix(0.6415711,0,0,-0.6415711,1107.4082,1602.473)">
        <path
           d="M 0,0 C 0,0.823 -0.126,1.404 -0.377,1.742 -0.629,2.08 -0.984,2.249 -1.443,2.249 -1.66,2.249 -1.855,2.21 -2.028,2.133 -2.202,2.055 -2.352,1.929 -2.477,1.756 -2.603,1.582 -2.698,1.351 -2.763,1.06 -2.828,0.77 -2.86,0.416 -2.86,0 c 0,-0.832 0.114,-1.414 0.344,-1.748 0.23,-0.334 0.578,-0.501 1.046,-0.501 0.235,0 0.443,0.039 0.624,0.117 0.183,0.078 0.336,0.204 0.462,0.377 0.125,0.174 0.221,0.405 0.286,0.696 C -0.033,-0.769 0,-0.416 0,0 M 1.586,0 C 1.586,-0.58 1.508,-1.09 1.352,-1.527 1.195,-1.965 0.979,-2.331 0.701,-2.626 0.424,-2.92 0.102,-3.144 -0.267,-3.295 -0.636,-3.446 -1.036,-3.522 -1.47,-3.522 c -0.441,0 -0.846,0.069 -1.215,0.208 -0.369,0.138 -0.685,0.35 -0.949,0.636 -0.264,0.286 -0.468,0.651 -0.611,1.092 -0.143,0.442 -0.214,0.971 -0.214,1.586 0,0.555 0.075,1.051 0.227,1.489 0.152,0.438 0.36,0.806 0.624,1.105 0.264,0.299 0.583,0.528 0.956,0.689 0.372,0.16 0.78,0.24 1.221,0.24 0.434,0 0.832,-0.065 1.197,-0.195 C 0.13,3.198 0.448,2.992 0.721,2.711 0.994,2.429 1.206,2.065 1.358,1.619 1.51,1.173 1.586,0.633 1.586,0"
           style="fill:#ffffff;fill-opacity:1;fill-rule:nonzero;stroke:none"
           id="path4376"
           inkscape:connector-curvature="0" />
      </g>
      <g
         id="g4378"
         transform="matrix(0.6415711,0,0,-0.6415711,1112.2789,1603.3821)">
        <path
           d="m 0,0 c 0,-0.363 -0.074,-0.68 -0.221,-0.948 -0.147,-0.27 -0.341,-0.489 -0.579,-0.657 -0.238,-0.169 -0.515,-0.294 -0.832,-0.377 -0.316,-0.082 -0.643,-0.123 -0.981,-0.123 -0.365,0 -0.733,0.041 -1.105,0.123 -0.373,0.083 -0.698,0.197 -0.975,0.344 0.052,0.242 0.106,0.47 0.163,0.683 0.055,0.212 0.119,0.431 0.188,0.656 0.269,-0.147 0.585,-0.26 0.948,-0.338 0.365,-0.078 0.711,-0.117 1.04,-0.117 0.295,0 0.505,0.061 0.631,0.183 0.126,0.121 0.189,0.29 0.189,0.507 0,0.19 -0.076,0.339 -0.228,0.448 -0.151,0.108 -0.342,0.206 -0.572,0.293 -0.229,0.086 -0.477,0.173 -0.74,0.26 -0.265,0.085 -0.512,0.203 -0.741,0.35 -0.23,0.148 -0.421,0.338 -0.573,0.572 -0.151,0.235 -0.227,0.537 -0.227,0.911 0,0.364 0.073,0.682 0.22,0.955 0.148,0.273 0.347,0.499 0.599,0.676 0.251,0.177 0.541,0.312 0.871,0.403 0.329,0.091 0.676,0.136 1.04,0.136 0.225,0 0.489,-0.017 0.793,-0.051 C -0.789,4.854 -0.507,4.802 -0.247,4.732 -0.256,4.533 -0.279,4.316 -0.318,4.082 -0.357,3.849 -0.403,3.619 -0.455,3.394 c -0.112,0.043 -0.245,0.08 -0.397,0.11 -0.151,0.03 -0.307,0.057 -0.467,0.078 -0.161,0.022 -0.322,0.039 -0.482,0.052 -0.16,0.012 -0.309,0.019 -0.448,0.019 -0.546,0 -0.819,-0.238 -0.819,-0.715 0,-0.173 0.076,-0.312 0.227,-0.416 0.152,-0.104 0.34,-0.197 0.566,-0.279 C -2.05,2.16 -1.803,2.074 -1.534,1.983 -1.266,1.892 -1.019,1.767 -0.793,1.605 -0.567,1.445 -0.379,1.239 -0.228,0.988 -0.076,0.737 0,0.407 0,0"
           style="fill:#ffffff;fill-opacity:1;fill-rule:nonzero;stroke:none"
           id="path4380"
           inkscape:connector-curvature="0" />
      </g>
      <g
         id="g4382"
         transform="matrix(0.6415711,0,0,-0.6415711,1115.815,1604.5412)">
        <path
           d="m 0,0 c -0.087,-0.043 -0.191,-0.084 -0.313,-0.123 -0.121,-0.039 -0.245,-0.072 -0.37,-0.098 -0.126,-0.026 -0.249,-0.046 -0.371,-0.058 -0.121,-0.013 -0.229,-0.02 -0.324,-0.02 -0.763,0 -1.315,0.189 -1.658,0.566 C -3.378,0.644 -3.55,1.23 -3.55,2.028 l 0,3.289 -0.793,0 0,1.3 0.793,0 0,1.43 c 0.217,0.052 0.462,0.101 0.736,0.149 0.272,0.048 0.521,0.08 0.747,0.098 l 0,-1.677 1.742,0 C -0.325,6.409 -0.332,6.196 -0.345,5.98 -0.357,5.764 -0.382,5.542 -0.416,5.317 l -1.651,0 0,-3.393 c 0,-0.356 0.069,-0.585 0.208,-0.689 0.138,-0.104 0.364,-0.156 0.675,-0.156 0.165,0 0.34,0.02 0.527,0.059 0.186,0.039 0.336,0.089 0.449,0.149 0.052,-0.19 0.095,-0.398 0.13,-0.624 C -0.044,0.438 -0.018,0.217 0,0"
           style="fill:#ffffff;fill-opacity:1;fill-rule:nonzero;stroke:none"
           id="path4384"
           inkscape:connector-curvature="0" />
      </g>
      <g
         id="g4386"
         transform="matrix(0.6415711,0,0,-0.6415711,1118.2999,1600.938)">
        <path
           d="m 0,0 c -0.39,0 -0.69,-0.139 -0.903,-0.416 -0.212,-0.277 -0.323,-0.729 -0.331,-1.353 l 2.352,0 c 0.009,0.044 0.014,0.105 0.014,0.183 l 0,0.194 c 0,0.486 -0.094,0.839 -0.28,1.06 C 0.665,-0.11 0.382,0 0,0 M 2.627,-1.769 C 2.627,-1.916 2.622,-2.08 2.613,-2.262 2.604,-2.444 2.592,-2.613 2.574,-2.77 l -3.821,0 0,-0.116 c 0,-0.278 0.025,-0.518 0.077,-0.721 0.053,-0.205 0.139,-0.373 0.261,-0.507 0.121,-0.135 0.288,-0.235 0.5,-0.3 0.213,-0.065 0.478,-0.097 0.8,-0.097 0.156,0 0.316,0.011 0.48,0.032 0.165,0.022 0.33,0.052 0.494,0.091 0.165,0.039 0.317,0.082 0.455,0.13 0.139,0.048 0.26,0.102 0.365,0.163 0.069,-0.2 0.133,-0.425 0.195,-0.676 0.06,-0.251 0.107,-0.49 0.142,-0.715 C 2.384,-5.556 2.224,-5.616 2.041,-5.668 1.859,-5.72 1.671,-5.766 1.476,-5.805 1.281,-5.844 1.086,-5.872 0.891,-5.889 0.696,-5.906 0.521,-5.915 0.364,-5.915 c -1.049,0 -1.85,0.283 -2.404,0.852 -0.556,0.567 -0.832,1.427 -0.832,2.58 0,0.615 0.071,1.148 0.214,1.599 0.143,0.45 0.345,0.825 0.604,1.124 0.26,0.299 0.568,0.523 0.923,0.67 0.356,0.147 0.741,0.221 1.157,0.221 0.893,0 1.549,-0.26 1.97,-0.78 0.42,-0.52 0.631,-1.227 0.631,-2.12"
           style="fill:#ffffff;fill-opacity:1;fill-rule:nonzero;stroke:none"
           id="path4388"
           inkscape:connector-curvature="0" />
      </g>
      <g
         id="g4390"
         transform="matrix(0.6415711,0,0,-0.6415711,1123.6711,1604.6496)">
        <path
           d="m 0,0 0,4.693 c 0,0.294 -0.071,0.52 -0.214,0.676 -0.143,0.156 -0.41,0.234 -0.8,0.234 -0.519,0 -0.992,-0.148 -1.417,-0.442 l 0,-5.161 -1.482,0 0,6.734 c 0.208,0.026 0.449,0.047 0.722,0.065 0.273,0.017 0.526,0.026 0.76,0.026 l 0,-0.676 0.078,0 c 0.338,0.312 0.657,0.518 0.956,0.618 0.299,0.099 0.604,0.149 0.917,0.149 0.259,0 0.508,-0.037 0.747,-0.11 C 0.505,6.731 0.716,6.615 0.897,6.454 1.079,6.294 1.223,6.079 1.326,5.811 1.431,5.542 1.482,5.213 1.482,4.823 L 1.482,0 0,0 Z"
           style="fill:#ffffff;fill-opacity:1;fill-rule:nonzero;stroke:none"
           id="path4392"
           inkscape:connector-curvature="0" />
      </g>
      <path
         d="m 1126.0564,1600.2957 0.9508,0 0,4.3537 -0.9508,0 0,-4.3537 z m 1.0182,-1.1587 c 0,0.1494 -0.046,0.2803 -0.138,0.3913 -0.092,0.1118 -0.229,0.1675 -0.4132,0.1675 -0.1777,0 -0.3111,-0.057 -0.4003,-0.1713 -0.089,-0.1143 -0.1335,-0.2432 -0.1335,-0.3875 0,-0.145 0.045,-0.2772 0.1335,-0.3971 0.089,-0.1187 0.2252,-0.1791 0.4087,-0.1791 0.1835,0 0.3195,0.058 0.4093,0.1758 0.089,0.1161 0.1335,0.2496 0.1335,0.4004"
         style="fill:#ffffff;fill-opacity:1;fill-rule:nonzero;stroke:none"
         id="path4394"
         inkscape:connector-curvature="0" />
      <g
         id="g4396"
         transform="matrix(0.6415711,0,0,-0.6415711,1131.1025,1602.3978)">
        <path
           d="m 0,0 c 0,0.407 -0.028,0.745 -0.084,1.015 -0.057,0.268 -0.14,0.482 -0.247,0.643 -0.108,0.16 -0.245,0.273 -0.41,0.338 -0.164,0.065 -0.356,0.097 -0.572,0.097 -0.511,0 -0.949,-0.155 -1.313,-0.468 l 0,-3.691 c 0.139,-0.096 0.304,-0.167 0.494,-0.215 0.191,-0.048 0.386,-0.072 0.585,-0.072 0.537,0 0.93,0.175 1.177,0.527 C -0.123,-1.476 0,-0.866 0,0 m 1.586,0.144 c 0,-1.214 -0.267,-2.148 -0.8,-2.802 -0.532,-0.655 -1.284,-0.982 -2.255,-0.982 -0.511,0 -0.99,0.061 -1.436,0.182 -0.447,0.121 -0.848,0.32 -1.203,0.599 l 0,8.918 c 0.208,0.025 0.449,0.049 0.721,0.071 0.274,0.021 0.527,0.032 0.761,0.032 l 0,-3.471 0.078,0 c 0.277,0.278 0.548,0.466 0.813,0.566 0.264,0.099 0.556,0.149 0.877,0.149 0.346,0 0.668,-0.058 0.962,-0.176 C 0.398,3.113 0.656,2.925 0.878,2.665 1.099,2.405 1.271,2.067 1.397,1.651 1.523,1.235 1.586,0.732 1.586,0.144"
           style="fill:#ffffff;fill-opacity:1;fill-rule:nonzero;stroke:none"
           id="path4398"
           inkscape:connector-curvature="0" />
      </g>
      <g
         id="g4400"
         transform="matrix(0.6415711,0,0,-0.6415711,1133.296,1604.6496)">
        <path
           d="m 0,0 0,9.568 c 0.208,0.026 0.449,0.05 0.722,0.072 0.273,0.021 0.526,0.032 0.76,0.032 L 1.482,0 0,0 Z"
           style="fill:#ffffff;fill-opacity:1;fill-rule:nonzero;stroke:none"
           id="path4402"
           inkscape:connector-curvature="0" />
      </g>
      <g
         id="g4404"
         transform="matrix(0.6415711,0,0,-0.6415711,1137.2576,1600.938)">
        <path
           d="m 0,0 c -0.39,0 -0.69,-0.139 -0.903,-0.416 -0.212,-0.277 -0.323,-0.729 -0.331,-1.353 l 2.352,0 c 0.009,0.044 0.014,0.105 0.014,0.183 l 0,0.194 c 0,0.486 -0.094,0.839 -0.28,1.06 C 0.665,-0.11 0.382,0 0,0 M 2.627,-1.769 C 2.627,-1.916 2.622,-2.08 2.613,-2.262 2.604,-2.444 2.592,-2.613 2.574,-2.77 l -3.821,0 0,-0.116 c 0,-0.278 0.025,-0.518 0.077,-0.721 0.053,-0.205 0.139,-0.373 0.261,-0.507 0.121,-0.135 0.288,-0.235 0.5,-0.3 0.213,-0.065 0.478,-0.097 0.8,-0.097 0.156,0 0.316,0.011 0.48,0.032 0.165,0.022 0.33,0.052 0.494,0.091 0.165,0.039 0.317,0.082 0.455,0.13 0.139,0.048 0.26,0.102 0.365,0.163 0.069,-0.2 0.133,-0.425 0.195,-0.676 0.06,-0.251 0.107,-0.49 0.142,-0.715 C 2.384,-5.556 2.224,-5.616 2.041,-5.668 1.859,-5.72 1.671,-5.766 1.476,-5.805 1.281,-5.844 1.086,-5.872 0.891,-5.889 0.696,-5.906 0.521,-5.915 0.364,-5.915 c -1.049,0 -1.85,0.283 -2.404,0.852 -0.556,0.567 -0.832,1.427 -0.832,2.58 0,0.615 0.071,1.148 0.214,1.599 0.143,0.45 0.345,0.825 0.604,1.124 0.26,0.299 0.568,0.523 0.923,0.67 0.356,0.147 0.741,0.221 1.157,0.221 0.893,0 1.549,-0.26 1.97,-0.78 0.42,-0.52 0.631,-1.227 0.631,-2.12"
           style="fill:#ffffff;fill-opacity:1;fill-rule:nonzero;stroke:none"
           id="path4406"
           inkscape:connector-curvature="0" />
      </g>
      <g
         id="g4408"
         transform="matrix(0.6415711,0,0,-0.6415711,1104.7937,1594.3331)">
        <path
           d="m 0,0 c -0.129,-0.075 -0.284,-0.143 -0.466,-0.201 -0.182,-0.059 -0.37,-0.108 -0.563,-0.145 -0.193,-0.037 -0.389,-0.067 -0.587,-0.089 -0.198,-0.021 -0.378,-0.032 -0.538,-0.032 -1.265,0 -2.23,0.346 -2.895,1.037 -0.664,0.692 -0.996,1.75 -0.996,3.176 0,0.793 0.099,1.474 0.297,2.042 0.198,0.567 0.467,1.034 0.804,1.399 0.338,0.364 0.726,0.632 1.166,0.803 0.439,0.172 0.905,0.258 1.398,0.258 0.375,0 0.767,-0.024 1.174,-0.072 0.407,-0.049 0.761,-0.132 1.061,-0.25 C -0.177,7.669 -0.228,7.382 -0.298,7.066 -0.367,6.75 -0.445,6.452 -0.53,6.174 c -0.269,0.118 -0.553,0.201 -0.853,0.249 -0.3,0.049 -0.59,0.072 -0.868,0.072 -0.3,0 -0.562,-0.043 -0.788,-0.129 C -3.264,6.281 -3.451,6.139 -3.602,5.94 -3.752,5.742 -3.867,5.482 -3.947,5.161 c -0.08,-0.322 -0.12,-0.719 -0.12,-1.19 0,-0.536 0.037,-0.978 0.112,-1.326 0.075,-0.349 0.192,-0.623 0.353,-0.821 0.162,-0.198 0.368,-0.337 0.62,-0.418 0.252,-0.08 0.548,-0.12 0.892,-0.12 0.289,0 0.592,0.037 0.908,0.112 0.317,0.076 0.587,0.177 0.812,0.306 C -0.284,1.436 -0.209,1.157 -0.145,0.868 -0.08,0.579 -0.032,0.289 0,0"
           style="fill:#050301;fill-opacity:1;fill-rule:nonzero;stroke:none"
           id="path4410"
           inkscape:connector-curvature="0" />
      </g>
      <g
         id="g4412"
         transform="matrix(0.6415711,0,0,-0.6415711,1109.0122,1590.2687)">
        <path
           d="m 0,0 c -0.16,0.096 -0.354,0.171 -0.579,0.225 -0.225,0.053 -0.444,0.08 -0.659,0.08 -0.322,0 -0.6,-0.045 -0.836,-0.137 -0.236,-0.091 -0.432,-0.246 -0.587,-0.466 -0.155,-0.22 -0.271,-0.509 -0.346,-0.868 -0.074,-0.359 -0.112,-0.807 -0.112,-1.343 0,-0.525 0.032,-0.959 0.097,-1.302 0.064,-0.343 0.161,-0.617 0.289,-0.82 0.129,-0.204 0.295,-0.346 0.499,-0.426 0.203,-0.081 0.444,-0.121 0.723,-0.121 0.322,0 0.603,0.035 0.844,0.105 0.241,0.069 0.464,0.169 0.667,0.298 L 0,0 Z m 1.849,-4.39 c 0,-0.214 0.035,-0.364 0.105,-0.45 0.069,-0.086 0.195,-0.129 0.377,-0.129 l 0.949,0 0,-0.594 C 3.28,-6.024 3.146,-6.346 2.878,-6.528 2.61,-6.71 2.294,-6.802 1.93,-6.802 c -0.322,0 -0.636,0.075 -0.941,0.226 -0.305,0.149 -0.539,0.444 -0.699,0.884 l -0.049,0 c -0.375,-0.397 -0.75,-0.681 -1.125,-0.852 -0.376,-0.172 -0.756,-0.258 -1.141,-0.258 -0.976,0 -1.729,0.335 -2.259,1.005 -0.531,0.67 -0.796,1.707 -0.796,3.111 0,0.761 0.088,1.429 0.265,2.002 0.176,0.574 0.426,1.053 0.748,1.439 0.321,0.386 0.707,0.676 1.157,0.868 0.45,0.193 0.949,0.29 1.495,0.29 0.472,0 0.943,-0.075 1.415,-0.225 0.15,0.064 0.324,0.113 0.522,0.144 0.199,0.032 0.405,0.049 0.62,0.049 0.129,0 0.252,-0.006 0.37,-0.017 0.117,-0.01 0.23,-0.026 0.337,-0.048 l 0,-6.206 z"
           style="fill:#050301;fill-opacity:1;fill-rule:nonzero;stroke:none"
           id="path4414"
           inkscape:connector-curvature="0" />
      </g>
      <g
         id="g4416"
         transform="matrix(0.6415711,0,0,-0.6415711,1115.0876,1594.3951)">
        <path
           d="M 0,0 C -0.107,-0.054 -0.236,-0.104 -0.386,-0.152 -0.536,-0.201 -0.689,-0.241 -0.844,-0.273 -1,-0.306 -1.152,-0.329 -1.303,-0.346 -1.453,-0.361 -1.587,-0.37 -1.704,-0.37 c -0.943,0 -1.627,0.233 -2.05,0.7 -0.424,0.466 -0.636,1.191 -0.636,2.178 l 0,4.068 -0.98,0 0,1.608 0.98,0 0,1.768 c 0.268,0.065 0.572,0.126 0.909,0.185 0.337,0.059 0.646,0.099 0.924,0.121 l 0,-2.074 2.155,0 c 0,-0.257 -0.008,-0.52 -0.024,-0.788 -0.016,-0.268 -0.046,-0.542 -0.089,-0.82 l -2.042,0 0,-4.196 c 0,-0.441 0.086,-0.724 0.258,-0.853 0.171,-0.129 0.45,-0.192 0.836,-0.192 0.203,0 0.42,0.023 0.65,0.072 0.231,0.048 0.417,0.11 0.555,0.185 C -0.193,1.355 -0.14,1.099 -0.097,0.82 -0.054,0.541 -0.021,0.268 0,0"
           style="fill:#050301;fill-opacity:1;fill-rule:nonzero;stroke:none"
           id="path4418"
           inkscape:connector-curvature="0" />
      </g>
      <g
         id="g4420"
         transform="matrix(0.6415711,0,0,-0.6415711,1118.1615,1589.9392)">
        <path
           d="m 0,0 c -0.482,0 -0.854,-0.171 -1.117,-0.514 -0.263,-0.343 -0.4,-0.9 -0.41,-1.673 l 2.91,0 c 0.011,0.054 0.015,0.129 0.015,0.226 l 0,0.241 c 0,0.6 -0.115,1.037 -0.345,1.311 C 0.822,-0.137 0.472,0 0,0 m 3.248,-2.187 c 0,-0.181 -0.006,-0.385 -0.017,-0.61 -0.01,-0.225 -0.026,-0.434 -0.047,-0.627 l -4.727,0 0,-0.145 c 0,-0.343 0.031,-0.641 0.096,-0.892 0.064,-0.252 0.172,-0.461 0.322,-0.627 0.149,-0.167 0.355,-0.29 0.618,-0.37 0.263,-0.08 0.593,-0.121 0.989,-0.121 0.194,0 0.392,0.014 0.595,0.041 0.204,0.026 0.407,0.063 0.611,0.112 0.204,0.048 0.391,0.102 0.563,0.161 0.171,0.059 0.321,0.125 0.45,0.201 C 2.787,-5.311 2.867,-5.59 2.942,-5.9 3.018,-6.211 3.076,-6.506 3.119,-6.784 2.947,-6.87 2.749,-6.945 2.524,-7.01 2.299,-7.074 2.066,-7.13 1.825,-7.179 1.584,-7.227 1.343,-7.262 1.102,-7.283 0.86,-7.305 0.644,-7.315 0.45,-7.315 c -1.297,0 -2.288,0.351 -2.974,1.053 -0.686,0.701 -1.029,1.766 -1.029,3.192 0,0.76 0.088,1.42 0.265,1.977 0.177,0.557 0.427,1.021 0.748,1.391 0.321,0.37 0.702,0.645 1.142,0.828 0.439,0.182 0.916,0.273 1.43,0.273 1.104,0 1.916,-0.322 2.436,-0.964 0.52,-0.644 0.78,-1.517 0.78,-2.622"
           style="fill:#050301;fill-opacity:1;fill-rule:nonzero;stroke:none"
           id="path4422"
           inkscape:connector-curvature="0" />
      </g>
      <g
         id="g4424"
         transform="matrix(0.6415711,0,0,-0.6415711,1124.5565,1589.1034)">
        <path
           d="m 0,0 c 0,-0.311 -0.016,-0.627 -0.048,-0.948 -0.032,-0.323 -0.075,-0.639 -0.129,-0.949 -0.214,0.053 -0.466,0.081 -0.756,0.081 -0.289,0 -0.57,-0.041 -0.843,-0.122 -0.274,-0.08 -0.555,-0.233 -0.844,-0.458 l 0,-6.061 -1.833,0 0,8.328 c 0.257,0.032 0.555,0.059 0.892,0.081 0.337,0.021 0.651,0.032 0.941,0.032 l 0,-1.078 0.096,0 c 0.214,0.28 0.407,0.496 0.579,0.652 0.172,0.155 0.335,0.273 0.49,0.353 0.155,0.081 0.303,0.132 0.442,0.153 0.14,0.022 0.274,0.033 0.403,0.033 0.085,0 0.184,-0.008 0.297,-0.025 C -0.2,0.057 -0.096,0.032 0,0"
           style="fill:#050301;fill-opacity:1;fill-rule:nonzero;stroke:none"
           id="path4426"
           inkscape:connector-curvature="0" />
      </g>
      <path
         d="m 1125.7324,1589.1445 1.1761,0 0,5.3847 -1.1761,0 0,-5.3847 z m 1.2582,-1.4339 c 0,0.1861 -0.057,0.3477 -0.17,0.485 -0.1129,0.1379 -0.2836,0.206 -0.5107,0.206 -0.2201,0 -0.385,-0.07 -0.4947,-0.2111 -0.1104,-0.1412 -0.1655,-0.3009 -0.1655,-0.4799 0,-0.1784 0.055,-0.3413 0.1655,-0.4902 0.1098,-0.1475 0.2785,-0.2213 0.5049,-0.2213 0.2271,0 0.3952,0.072 0.5056,0.2169 0.1097,0.1443 0.1649,0.3092 0.1649,0.4946"
         style="fill:#050301;fill-opacity:1;fill-rule:nonzero;stroke:none"
         id="path4428"
         inkscape:connector-curvature="0" />
      <g
         id="g4430"
         transform="matrix(0.6415711,0,0,-0.6415711,1131.818,1594.5292)">
        <path
           d="M 0,0 0,5.804 C 0,6.168 -0.088,6.447 -0.265,6.641 -0.441,6.833 -0.771,6.93 -1.254,6.93 -1.896,6.93 -2.481,6.747 -3.006,6.383 l 0,-6.383 -1.833,0 0,8.328 c 0.257,0.032 0.555,0.059 0.893,0.081 0.337,0.021 0.65,0.032 0.94,0.032 l 0,-0.837 0.096,0 c 0.419,0.387 0.812,0.641 1.182,0.764 0.37,0.123 0.748,0.186 1.133,0.186 0.323,0 0.63,-0.046 0.925,-0.137 C 0.625,8.325 0.885,8.181 1.109,7.982 1.335,7.784 1.512,7.519 1.641,7.187 1.769,6.854 1.833,6.447 1.833,5.965 L 1.833,0 0,0 Z"
           style="fill:#050301;fill-opacity:1;fill-rule:nonzero;stroke:none"
           id="path4432"
           inkscape:connector-curvature="0" />
      </g>
      <g
         id="g4434"
         transform="matrix(0.6415711,0,0,-0.6415711,1137.4292,1590.785)">
        <path
           d="M 0,0 C 0,0.536 -0.123,0.909 -0.369,1.118 -0.616,1.327 -0.942,1.432 -1.35,1.432 -2.25,1.432 -2.7,0.954 -2.7,0 c 0,-0.514 0.114,-0.882 0.346,-1.101 0.229,-0.219 0.564,-0.33 1.004,-0.33 0.418,0 0.747,0.108 0.989,0.322 C -0.12,-0.895 0,-0.525 0,0 m 0.756,-6.479 c 0,0.311 -0.056,0.517 -0.169,0.619 -0.112,0.101 -0.318,0.153 -0.618,0.153 l -2.782,0 c -0.086,-0.118 -0.145,-0.252 -0.177,-0.402 -0.032,-0.15 -0.048,-0.285 -0.048,-0.402 0,-0.225 0.029,-0.421 0.088,-0.587 0.059,-0.166 0.158,-0.3 0.298,-0.402 0.138,-0.102 0.327,-0.177 0.562,-0.226 0.236,-0.047 0.536,-0.072 0.901,-0.072 0.622,0 1.101,0.103 1.439,0.306 0.337,0.204 0.506,0.542 0.506,1.013 m 1.736,0.177 C 2.492,-6.741 2.415,-7.146 2.26,-7.516 2.104,-7.886 1.871,-8.202 1.56,-8.465 1.249,-8.728 0.855,-8.934 0.378,-9.084 c -0.477,-0.149 -1.037,-0.225 -1.68,-0.225 -0.643,0 -1.179,0.065 -1.607,0.193 -0.43,0.129 -0.776,0.305 -1.037,0.531 -0.263,0.225 -0.45,0.484 -0.564,0.779 -0.112,0.295 -0.168,0.609 -0.168,0.941 0,0.333 0.064,0.619 0.193,0.86 0.129,0.241 0.321,0.49 0.579,0.748 -0.097,0.16 -0.191,0.337 -0.282,0.53 -0.091,0.194 -0.164,0.386 -0.217,0.58 0.032,0.117 0.075,0.262 0.129,0.433 0.053,0.172 0.121,0.354 0.201,0.547 0.08,0.193 0.171,0.383 0.273,0.57 0.102,0.188 0.206,0.352 0.314,0.492 -0.29,0.213 -0.521,0.49 -0.692,0.827 -0.172,0.338 -0.258,0.732 -0.258,1.182 0,0.836 0.263,1.514 0.789,2.034 0.525,0.52 1.264,0.78 2.218,0.78 0.151,0 0.295,-0.008 0.435,-0.025 0.139,-0.015 0.273,-0.035 0.401,-0.056 0,0.396 0.054,0.737 0.161,1.021 0.108,0.284 0.255,0.52 0.443,0.707 0.187,0.188 0.404,0.324 0.651,0.41 0.246,0.086 0.509,0.129 0.787,0.129 0.718,0 1.077,-0.332 1.077,-0.997 l 0,-0.611 -0.9,0 C 1.303,3.296 1.069,3.222 0.925,3.071 0.78,2.921 0.708,2.69 0.708,2.38 l 0,-0.338 C 1.019,1.796 1.255,1.493 1.415,1.134 1.576,0.774 1.656,0.37 1.656,-0.08 1.656,-0.541 1.584,-0.94 1.439,-1.278 1.295,-1.615 1.094,-1.892 0.837,-2.105 0.579,-2.32 0.273,-2.481 -0.08,-2.588 c -0.354,-0.107 -0.739,-0.161 -1.157,-0.161 -0.204,0 -0.403,0.017 -0.595,0.048 -0.193,0.032 -0.365,0.064 -0.515,0.097 -0.139,-0.193 -0.236,-0.37 -0.29,-0.531 -0.053,-0.161 -0.08,-0.3 -0.08,-0.418 0,-0.182 0.04,-0.308 0.121,-0.378 0.08,-0.07 0.206,-0.104 0.377,-0.104 l 2.3,0 c 0.375,0 0.71,-0.035 1.005,-0.105 0.295,-0.07 0.547,-0.19 0.756,-0.362 0.209,-0.171 0.369,-0.404 0.482,-0.699 0.113,-0.295 0.168,-0.661 0.168,-1.101"
           style="fill:#050301;fill-opacity:1;fill-rule:nonzero;stroke:none"
           id="path4436"
           inkscape:connector-curvature="0" />
      </g>
      <g
         transform="matrix(0.6415711,0,0,-0.6415711,900.16761,1854.7652)"
         id="g4438">
        <g
           id="g4440"
           clip-path="url(#clipPath148)">
          <g
             id="g4442"
             transform="translate(309.7217,359.2988)">
            <path
               d="m 0,0 c 5.824,0 10.858,-1.811 15.587,0.865 1.367,1.158 7.469,2.133 7.469,2.133 0,0 -20.849,14.617 -24.782,23.268 l -28.04,-12.823 c 0,0 4.301,-6.929 8.934,-13.443 L 0,0 Z"
               style="fill:#050301;fill-opacity:1;fill-rule:nonzero;stroke:none"
               id="path4444"
               inkscape:connector-curvature="0" />
          </g>
        </g>
      </g>
      <rect
         style="color:#000000;display:inline;overflow:visible;visibility:visible;fill:none;stroke:#ffffff;stroke-width:2.08800006;stroke-linecap:butt;stroke-linejoin:miter;stroke-miterlimit:4;stroke-dasharray:none;stroke-dashoffset:0;stroke-opacity:1;marker:none;enable-background:accumulate"
         id="rect4446"
         width="112.5386"
         height="72.730667"
         x="1034.7488"
         y="1548.303"
         ry="20.752483" />
    </g>
  </g>
</svg>
